<?xml version="1.0" encoding="UTF-8" standalone="no"?>
<!-- Created with Inkscape (http://www.inkscape.org/) -->

<svg
   version="1.1"
   id="svg1"
   width="1024"
   height="1024"
   viewBox="0 0 1024 1024"
   sodipodi:docname="curl-ier_logo.svg"
   inkscape:version="1.3.1 (91b66b0783, 2023-11-16)"
   xmlns:inkscape="http://www.inkscape.org/namespaces/inkscape"
   xmlns:sodipodi="http://sodipodi.sourceforge.net/DTD/sodipodi-0.dtd"
   xmlns="http://www.w3.org/2000/svg"
   xmlns:svg="http://www.w3.org/2000/svg">
  <defs
     id="defs1" />
  <sodipodi:namedview
     id="namedview1"
     pagecolor="#ffffff"
     bordercolor="#000000"
     borderopacity="0.25"
     inkscape:showpageshadow="2"
     inkscape:pageopacity="0.0"
     inkscape:pagecheckerboard="0"
     inkscape:deskcolor="#d1d1d1"
     showgrid="false"
     inkscape:zoom="1.1455078"
     inkscape:cx="512"
     inkscape:cy="512"
     inkscape:window-width="2560"
     inkscape:window-height="1369"
     inkscape:window-x="2552"
     inkscape:window-y="1"
     inkscape:window-maximized="1"
     inkscape:current-layer="g1" />
  <g
     inkscape:groupmode="layer"
     inkscape:label="Image"
     id="g1">
    <g
       id="g9"
       transform="matrix(1.4126871,0,0,1.4126871,-218.40418,-204.18089)">
      <path
         style="fill:#50c6fd"
         d="m 329,699.68593 c -3.025,-2.37205 -11.6875,-8.71865 -19.25,-14.10354 -7.5625,-5.3849 -13.75,-10.16373 -13.75,-10.61961 0,-3.52499 25.51177,-18.13989 50.5,-28.92988 4.4,-1.89994 12.15133,-5.51756 17.22518,-8.03916 l 9.22517,-4.58474 -2.69687,4.5455 c -19.1494,32.2757 -25.96574,47.2254 -26.96454,59.139 l -0.57901,6.9065 -4.10497,-6.3e-4 c -3.32138,-5.1e-4 -5.15483,-0.82388 -9.60496,-4.31344 z m 60,-22.06349 c 0,-0.20765 0.7875,-0.99515 1.75,-1.75 1.58606,-1.24387 1.62143,-1.2085 0.37756,0.37756 C 389.82119,677.91575 389,678.44548 389,677.62244 Z M 401.27236,648 c 0,-2.475 0.19502,-3.4875 0.43337,-2.25 0.23836,1.2375 0.23836,3.2625 0,4.5 -0.23835,1.2375 -0.43337,0.225 -0.43337,-2.25 z M 196.14298,625.30562 c -5.5792,-6.5271 -8.87887,-13.59319 -10.18264,-21.80562 -1.36923,-8.62469 -0.40737,-33.53678 1.62161,-42 5.00658,-20.88329 20.45463,-36.67389 49.91805,-51.02496 13.33787,-6.49662 24.74719,-11.04867 55.5,-22.14319 38.86841,-14.02234 47.05964,-17.26079 57.25,-22.63416 5.3625,-2.82764 9.75,-5.74294 9.75,-6.47845 0,-0.7355 0.44713,-1.06093 0.99362,-0.72318 1.36254,0.84209 12.66356,-7.36847 17.43154,-12.66459 6.19859,-6.88518 8.87824,-13.7257 8.38867,-21.41429 -0.22474,-3.52945 -0.22705,-6.41718 -0.005,-6.41718 0.62981,0 4.55421,5.17357 5.94131,7.8325 0.6875,1.31786 1.25,3.49623 1.25,4.84082 0,1.43797 0.42831,2.18 1.04008,1.80191 2.51047,-1.55156 -2.8486,13.93426 -6.81489,19.69262 -1.64116,2.38268 -10.86036,12.43215 -20.48711,22.33215 -18.60933,19.13753 -25.07531,26.58223 -30.94658,35.63077 -4.68018,7.21289 -13.99159,25.73646 -13.41012,26.6773 0.55903,0.90452 -15.7683,7.31838 -46.38138,18.21996 -31.68771,11.28427 -36.08309,13.28608 -55.5,25.27662 -14.37532,8.8772 -19.71555,13.34746 -22.58473,18.90551 -2.63422,5.10289 -2.41101,9.03903 1.08473,19.12792 1.65,4.76199 3,9.33401 3,10.16004 0,2.82657 -2.84382,1.50254 -6.85702,-3.1925 z M 380.5,508 c 0.99549,-1.1 2.03498,-2 2.30998,-2 0.275,0 -0.31449,0.9 -1.30998,2 -0.99549,1.1 -2.03498,2 -2.30998,2 -0.275,0 0.31449,-0.9 1.30998,-2 z m 18.65789,-58 c 0,-1.375 0.22698,-1.9375 0.50439,-1.25 0.27741,0.6875 0.27741,1.8125 0,2.5 -0.27741,0.6875 -0.50439,0.125 -0.50439,-1.25 z M 310.5,438.58324 c -14.85,-5.09404 -30.15,-10.49336 -34,-11.99847 -3.85,-1.50511 -8.35,-3.22191 -10,-3.81511 -7.49804,-2.69564 -37.07541,-18.43364 -42.72458,-22.73358 -9.37941,-7.13926 -18.47167,-17.14909 -21.55542,-23.73077 -2.62573,-5.6041 -2.71792,-6.37718 -2.66004,-22.30531 0.047,-12.92208 0.45279,-17.80106 1.87157,-22.5 2.34854,-7.77831 7.11271,-17.56052 9.55826,-19.62586 1.05884,-0.89422 1.70842,-1.84259 1.44352,-2.1075 -0.2649,-0.2649 0.31673,-1.10826 1.29252,-1.87414 1.54547,-1.213 1.6379,-1.19914 0.71705,0.1075 -0.58142,0.825 -0.9974,4.47654 -0.92441,8.11453 0.10439,5.20316 0.70125,7.58468 2.79724,11.16121 2.94196,5.02008 11.21524,12.87326 19.68429,18.68477 10.25632,7.03795 34.33505,18.36899 58.5,27.5291 5.5,2.08487 10.53732,4.2901 11.19403,4.90053 0.65672,0.61042 4.16597,9.99985 7.79834,20.8654 8.06243,24.11731 12.72233,34.32777 19.39381,42.49446 2.80814,3.4375 4.99503,6.21516 4.85976,6.17257 -0.13527,-0.0426 -12.39594,-4.24528 -27.24594,-9.33933 z"
         id="path15" />
      <path
         style="fill:#b0b0af"
         d="m 415.26375,860.28242 c 1.52006,-0.22986 3.77006,-0.22371 5,0.0136 1.22994,0.23736 -0.0138,0.42542 -2.76375,0.41792 -2.75,-0.008 -3.75631,-0.20172 -2.23625,-0.43157 z M 436.5,854 c 0.99549,-1.1 2.03498,-2 2.30998,-2 0.275,0 -0.31449,0.9 -1.30998,2 -0.99549,1.1 -2.03498,2 -2.30998,2 -0.275,0 0.31449,-0.9 1.30998,-2 z m 6.82007,-17 c 0,-3.575 0.1815,-5.0375 0.40333,-3.25 0.22182,1.7875 0.22182,4.7125 0,6.5 -0.22183,1.7875 -0.40333,0.325 -0.40333,-3.25 z m -82.91508,-7.25 -1.90499,-2.25 2.25,1.90499 c 1.2375,1.04774 2.25,2.06024 2.25,2.25 0,0.80025 -0.80479,0.20945 -2.59501,-1.90499 z m -23.9679,-24 -2.93709,-3.25 3.25,2.93709 c 1.7875,1.6154 3.25,3.0779 3.25,3.25 0,0.77256 -0.82513,0.0924 -3.56291,-2.93709 z m -7.56465,-8.5 c -1.24387,-1.58606 -1.2085,-1.62143 0.37756,-0.37756 0.9625,0.75485 1.75,1.54235 1.75,1.75 0,0.82304 -0.82119,0.29331 -2.12756,-1.37244 z m -5,-6 c -1.24387,-1.58606 -1.2085,-1.62143 0.37756,-0.37756 0.9625,0.75485 1.75,1.54235 1.75,1.75 0,0.82304 -0.82119,0.29331 -2.12756,-1.37244 z m 86.53255,-17.5 -1.90499,-2.25 2.25,1.90499 c 2.11444,1.79022 2.70524,2.59501 1.90499,2.59501 -0.18976,0 -1.20226,-1.0125 -2.25,-2.25 z m -6.9679,-8 -2.93709,-3.25 3.25,2.93709 c 3.02946,2.73778 3.70965,3.56291 2.93709,3.56291 -0.1721,0 -1.6346,-1.4625 -3.25,-3.25 z m -12.97468,-14 -4.96241,-5.25 5.25,4.96241 c 4.87839,4.61116 5.7086,5.53759 4.96241,5.53759 -0.15818,0 -2.52068,-2.3625 -5.25,-5.25 z m -16.02532,-15 -2.93709,-3.25 3.25,2.93709 c 1.7875,1.6154 3.25,3.0779 3.25,3.25 0,0.77256 -0.82513,0.0924 -3.56291,-2.93709 z m -8.0321,-7 -1.90499,-2.25 2.25,1.90499 c 2.11444,1.79022 2.70524,2.59501 1.90499,2.59501 -0.18976,0 -1.20226,-1.0125 -2.25,-2.25 z m -6,-5 -1.90499,-2.25 2.25,1.90499 c 1.2375,1.04774 2.25,2.06024 2.25,2.25 0,0.80025 -0.80479,0.20945 -2.59501,-1.90499 z m -5.53255,-4.5 c -1.24387,-1.58606 -1.2085,-1.62143 0.37756,-0.37756 0.9625,0.75485 1.75,1.54235 1.75,1.75 0,0.82304 -0.82119,0.29331 -2.12756,-1.37244 z m -10,-8 c -1.24387,-1.58606 -1.2085,-1.62143 0.37756,-0.37756 0.9625,0.75485 1.75,1.54235 1.75,1.75 0,0.82304 -0.82119,0.29331 -2.12756,-1.37244 z M 278.15789,707 c 0,-1.375 0.22698,-1.9375 0.50439,-1.25 0.27741,0.6875 0.27741,1.8125 0,2.5 -0.27741,0.6875 -0.50439,0.125 -0.50439,-1.25 z M 336,705.5 c -1.00961,-1.21651 -0.96975,-1.5 0.21089,-1.5 0.80068,0 1.45578,0.675 1.45578,1.5 0,0.825 -0.0949,1.5 -0.21089,1.5 -0.11599,0 -0.77109,-0.675 -1.45578,-1.5 z M 278.15789,694 c 0,-1.375 0.22698,-1.9375 0.50439,-1.25 0.27741,0.6875 0.27741,1.8125 0,2.5 -0.27741,0.6875 -0.50439,0.125 -0.50439,-1.25 z m 300.60377,-11.70726 c 1.24391,-0.23919 3.04391,-0.23011 4,0.0202 0.95609,0.25029 -0.0617,0.446 -2.26166,0.4349 -2.2,-0.0111 -2.98225,-0.21589 -1.73834,-0.45508 z m 38.48834,0.0179 c 0.9625,-0.25152 2.5375,-0.25152 3.5,0 0.9625,0.25153 0.175,0.45733 -1.75,0.45733 -1.925,0 -2.7125,-0.2058 -1.75,-0.45733 z m -49.98097,-1.00366 c 0.97297,-0.25354 2.32297,-0.23687 3,0.0371 0.67703,0.27393 -0.11903,0.48137 -1.76903,0.46099 -1.65,-0.0204 -2.20394,-0.2445 -1.23097,-0.49804 z m 62.54347,0.01 c 0.72187,-0.28887 1.58438,-0.25335 1.91667,0.0789 0.33229,0.33229 -0.25834,0.56864 -1.3125,0.52522 -1.16495,-0.048 -1.4019,-0.28494 -0.60417,-0.60416 z M 558.75,680.33772 c 0.6875,-0.27741 1.8125,-0.27741 2.5,0 0.6875,0.27741 0.125,0.50439 -1.25,0.50439 -1.375,0 -1.9375,-0.22698 -1.25,-0.50439 z m 78,0 c 0.6875,-0.27741 1.8125,-0.27741 2.5,0 0.6875,0.27741 0.125,0.50439 -1.25,0.50439 -1.375,0 -1.9375,-0.22698 -1.25,-0.50439 z m 7.0625,-1.02083 c 0.72187,-0.28887 1.58438,-0.25335 1.91667,0.0789 0.33229,0.33229 -0.25834,0.56864 -1.3125,0.52522 -1.16495,-0.048 -1.4019,-0.28494 -0.60417,-0.60416 z m 5,-1 c 0.72187,-0.28887 1.58438,-0.25335 1.91667,0.0789 0.33229,0.33229 -0.25834,0.56864 -1.3125,0.52522 -1.16495,-0.048 -1.4019,-0.28494 -0.60417,-0.60416 z m 10,-2 c 0.72187,-0.28887 1.58438,-0.25335 1.91667,0.0789 0.33229,0.33229 -0.25834,0.56864 -1.3125,0.52522 -1.16495,-0.048 -1.4019,-0.28494 -0.60417,-0.60416 z M 295,675.28911 c 0,-0.57432 0.7875,-1.66182 1.75,-2.41667 1.61876,-1.26951 1.63998,-1.22245 0.28297,0.62756 -0.80687,1.1 -1.59437,2.1875 -1.75,2.41667 C 295.12734,676.14583 295,675.86343 295,675.28911 Z M 280.87244,665.25 c -1.24387,-1.58606 -1.2085,-1.62143 0.37756,-0.37756 0.9625,0.75485 1.75,1.54235 1.75,1.75 0,0.82304 -0.82119,0.29331 -2.12756,-1.37244 z M 698,664 c 0.825,-0.53316 1.95,-0.96937 2.5,-0.96937 0.55,0 0.325,0.43621 -0.5,0.96937 -0.825,0.53316 -1.95,0.96937 -2.5,0.96937 -0.55,0 -0.325,-0.43621 0.5,-0.96937 z m -464.12756,-6.75 c -1.24387,-1.58606 -1.2085,-1.62143 0.37756,-0.37756 0.9625,0.75485 1.75,1.54235 1.75,1.75 0,0.82304 -0.82119,0.29331 -2.12756,-1.37244 z m 483.21089,-1.61455 c 0.22917,-0.2005 1.54167,-0.90032 2.91667,-1.55516 2.35727,-1.12265 2.38918,-1.10183 0.55887,0.36454 -1.593,1.27626 -4.84786,2.39128 -3.47554,1.19062 z M 262.87244,653.25 c -1.24387,-1.58606 -1.2085,-1.62143 0.37756,-0.37756 0.9625,0.75485 1.75,1.54235 1.75,1.75 0,0.82304 -0.82119,0.29331 -2.12756,-1.37244 z m -35.46745,-1.5 -1.90499,-2.25 2.25,1.90499 c 2.11444,1.79022 2.70524,2.59501 1.90499,2.59501 -0.18976,0 -1.20226,-1.0125 -2.25,-2.25 z m 287.3459,-86.99991 C 514.88888,517.86254 515.11831,457.9 515.26072,431.5 c 0.14242,-26.4 0.36702,11.9625 0.49911,85.25 0.13209,73.2875 -0.0973,133.25004 -0.50983,133.25009 -0.4125,5e-5 -0.6371,-38.36245 -0.49911,-85.25 z M 476,645.05902 c 0,-0.51754 0.44485,-1.21592 0.98855,-1.55194 0.56686,-0.35034 0.7345,0.0511 0.39301,0.94098 C 476.71677,646.18048 476,646.49745 476,645.05902 Z M 243.87244,639.25 c -1.24387,-1.58606 -1.2085,-1.62143 0.37756,-0.37756 0.9625,0.75485 1.75,1.54235 1.75,1.75 0,0.82304 -0.82119,0.29331 -2.12756,-1.37244 z M 743,640.65019 c 0,-0.23109 1.18041,-1.1936 2.62312,-2.13891 1.44272,-0.9453 2.31766,-1.22448 1.94431,-0.62038 C 746.85397,639.04529 743,641.37357 743,640.65019 Z M 207.87244,637.25 c -1.24387,-1.58606 -1.2085,-1.62143 0.37756,-0.37756 0.9625,0.75485 1.75,1.54235 1.75,1.75 0,0.82304 -0.82119,0.29331 -2.12756,-1.37244 z m 31,-2 c -1.24387,-1.58606 -1.2085,-1.62143 0.37756,-0.37756 0.9625,0.75485 1.75,1.54235 1.75,1.75 0,0.82304 -0.82119,0.29331 -2.12756,-1.37244 z m -7.94813,-7 -2.42431,-2.75 2.75,2.42431 c 2.57029,2.26589 3.20859,3.07569 2.42431,3.07569 -0.17912,0 -1.41662,-1.2375 -2.75,-2.75 z M 757,630.62244 c 0,-0.20765 0.7875,-0.99515 1.75,-1.75 1.58606,-1.24387 1.62143,-1.2085 0.37756,0.37756 C 757.82119,630.91575 757,631.44548 757,630.62244 Z m 4,-3 c 0,-0.20765 0.7875,-0.99515 1.75,-1.75 1.58606,-1.24387 1.62143,-1.2085 0.37756,0.37756 C 761.82119,627.91575 761,628.44548 761,627.62244 Z M 769,620.5 c 1.29175,-1.375 2.57363,-2.5 2.84863,-2.5 0.275,0 -0.55688,1.125 -1.84863,2.5 -1.29175,1.375 -2.57363,2.5 -2.84863,2.5 -0.275,0 0.55688,-1.125 1.84863,-2.5 z m -545.12756,-0.25 c -1.24387,-1.58606 -1.2085,-1.62143 0.37756,-0.37756 0.9625,0.75485 1.75,1.54235 1.75,1.75 0,0.82304 -0.82119,0.29331 -2.12756,-1.37244 z M 725.27236,608 c 0,-2.475 0.19502,-3.4875 0.43337,-2.25 0.23836,1.2375 0.23836,3.2625 0,4.5 -0.23835,1.2375 -0.43337,0.225 -0.43337,-2.25 z m -343.39992,0.25 c -1.24387,-1.58606 -1.2085,-1.62143 0.37756,-0.37756 0.9625,0.75485 1.75,1.54235 1.75,1.75 0,0.82304 -0.82119,0.29331 -2.12756,-1.37244 z M 728.5,608 c 0.99549,-1.1 2.03498,-2 2.30998,-2 0.275,0 -0.31449,0.9 -1.30998,2 -0.99549,1.1 -2.03498,2 -2.30998,2 -0.275,0 0.31449,-0.9 1.30998,-2 z M 377.40499,604.75 375.5,602.5 l 2.25,1.90499 c 2.11444,1.79022 2.70524,2.59501 1.90499,2.59501 -0.18976,0 -1.20226,-1.0125 -2.25,-2.25 z M 784,605.68709 c 0,-0.1721 1.4625,-1.6346 3.25,-3.25 l 3.25,-2.93709 -2.93709,3.25 C 784.82513,605.77946 784,606.45965 784,605.68709 Z m -572.92105,-8.3553 c -0.0434,-0.64252 -0.33793,-1.99252 -0.65446,-3 -0.54705,-1.74122 -0.51883,-1.7434 0.57078,-0.0441 0.63045,0.98322 0.92496,2.33322 0.65445,3 -0.35498,0.87499 -0.51379,0.88727 -0.57077,0.0441 z M 793.5,595 c 0.99549,-1.1 2.03498,-2 2.30998,-2 0.275,0 -0.31449,0.9 -1.30998,2 -0.99549,1.1 -2.03498,2 -2.30998,2 -0.275,0 0.31449,-0.9 1.30998,-2 z m -584.42105,-5.58333 c 0.048,-1.16495 0.28494,-1.4019 0.60416,-0.60417 0.28887,0.72187 0.25335,1.58438 -0.0789,1.91667 -0.3323,0.33229 -0.56864,-0.25834 -0.52522,-1.3125 z m -24,-8 c 0.048,-1.16495 0.28494,-1.4019 0.60416,-0.60417 0.28887,0.72187 0.25335,1.58438 -0.0789,1.91667 -0.3323,0.33229 -0.56864,-0.25834 -0.52522,-1.3125 z m 129.73355,-1.09978 c 0.72187,-0.28887 1.58438,-0.25335 1.91667,0.0789 0.33229,0.33229 -0.25834,0.56864 -1.3125,0.52522 -1.16495,-0.048 -1.4019,-0.28494 -0.60417,-0.60416 z m -11,-3 c 0.72187,-0.28887 1.58438,-0.25335 1.91667,0.0789 0.33229,0.33229 -0.25834,0.56864 -1.3125,0.52522 -1.16495,-0.048 -1.4019,-0.28494 -0.60417,-0.60416 z m 469.26645,-69.90022 c 0.048,-1.16495 0.28494,-1.4019 0.60416,-0.60417 0.28887,0.72187 0.25335,1.58438 -0.0789,1.91667 -0.33229,0.33229 -0.56864,-0.25834 -0.52522,-1.3125 z m 1,-6 c 0.048,-1.16495 0.28494,-1.4019 0.60416,-0.60417 0.28887,0.72187 0.25335,1.58438 -0.0789,1.91667 -0.33229,0.33229 -0.56864,-0.25834 -0.52522,-1.3125 z M 775.15789,493 c 0,-1.375 0.22698,-1.9375 0.50439,-1.25 0.27741,0.6875 0.27741,1.8125 0,2.5 -0.27741,0.6875 -0.50439,0.125 -0.50439,-1.25 z m 1.2446,-24 c 0,-8.525 0.15337,-12.0125 0.34082,-7.75 0.18745,4.2625 0.18745,11.2375 0,15.5 -0.18745,4.2625 -0.34082,0.775 -0.34082,-7.75 z m 73.67646,-8.58333 c 0.048,-1.16495 0.28494,-1.4019 0.60416,-0.60417 0.28887,0.72187 0.25335,1.58438 -0.0789,1.91667 -0.33229,0.33229 -0.56864,-0.25834 -0.52522,-1.3125 z M 851.15789,453 c 0,-1.375 0.22698,-1.9375 0.50439,-1.25 0.27741,0.6875 0.27741,1.8125 0,2.5 -0.27741,0.6875 -0.50439,0.125 -0.50439,-1.25 z m -75.96294,-8.5 c 0.0204,-1.65 0.2445,-2.20394 0.49804,-1.23097 0.25354,0.97297 0.23687,2.32297 -0.0371,3 -0.27393,0.67703 -0.48137,-0.11903 -0.46099,-1.76903 z m 77.14126,-7.5 c 0,-4.125 0.17651,-5.8125 0.39226,-3.75 0.21574,2.0625 0.21574,5.4375 0,7.5 -0.21575,2.0625 -0.39226,0.375 -0.39226,-3.75 z m -78.17832,-1 c 0,-1.375 0.22698,-1.9375 0.50439,-1.25 0.27741,0.6875 0.27741,1.8125 0,2.5 -0.27741,0.6875 -0.50439,0.125 -0.50439,-1.25 z m -1.07894,-6.58333 c 0.048,-1.16495 0.28494,-1.4019 0.60416,-0.60417 0.28887,0.72187 0.25335,1.58438 -0.0789,1.91667 -0.33229,0.33229 -0.56864,-0.25834 -0.52522,-1.3125 z m -1,-5 c 0.048,-1.16495 0.28494,-1.4019 0.60416,-0.60417 0.28887,0.72187 0.25335,1.58438 -0.0789,1.91667 -0.33229,0.33229 -0.56864,-0.25834 -0.52522,-1.3125 z M 852.35496,415.5 c -0.003,-4.95 0.16605,-7.10108 0.37577,-4.78017 0.20972,2.3209 0.21222,6.3709 0.006,9 -0.20667,2.62909 -0.37827,0.73017 -0.38131,-4.21983 z m -81.27601,3.91667 c 0.048,-1.16495 0.28494,-1.4019 0.60416,-0.60417 0.28887,0.72187 0.25335,1.58438 -0.0789,1.91667 -0.33229,0.33229 -0.56864,-0.25834 -0.52522,-1.3125 z M 384.40499,415.75 382.5,413.5 l 2.25,1.90499 c 1.2375,1.04774 2.25,2.06024 2.25,2.25 0,0.80025 -0.80479,0.20945 -2.59501,-1.90499 z M 851.19495,397.5 c 0.0204,-1.65 0.2445,-2.20394 0.49804,-1.23097 0.25354,0.97297 0.23687,2.32297 -0.0371,3 -0.27393,0.67703 -0.48137,-0.11903 -0.46099,-1.76903 z m -455.41852,-6.2335 c 2.35204,-0.21124 5.95204,-0.20827 8,0.007 2.04796,0.21487 0.12357,0.38771 -4.27643,0.38408 -4.4,-0.004 -6.07561,-0.17944 -3.72357,-0.39069 z m -10.96393,-0.94961 c 0.72187,-0.28887 1.58438,-0.25335 1.91667,0.0789 0.33229,0.33229 -0.25834,0.56864 -1.3125,0.52522 -1.16495,-0.048 -1.4019,-0.28494 -0.60417,-0.60416 z m 465.26645,-0.90022 c 0.048,-1.16495 0.28494,-1.4019 0.60416,-0.60417 0.28887,0.72187 0.25335,1.58438 -0.0789,1.91667 -0.33229,0.33229 -0.56864,-0.25834 -0.52522,-1.3125 z m -208.79878,-4.15294 c 2.6291,-0.20668 6.6791,-0.20418 9,0.006 2.32091,0.20972 0.16983,0.37882 -4.78017,0.37577 -4.95,-0.003 -6.84892,-0.17464 -4.21983,-0.38131 z M 539.75,384.26779 c 2.3375,-0.21053 6.1625,-0.21053 8.5,0 2.3375,0.21054 0.425,0.3828 -4.25,0.3828 -4.675,0 -6.5875,-0.17226 -4.25,-0.3828 z m 54.51903,0.0392 c 0.97297,-0.25354 2.32297,-0.23687 3,0.0371 0.67703,0.27393 -0.11903,0.48137 -1.76903,0.46099 -1.65,-0.0204 -2.20394,-0.2445 -1.23097,-0.49804 z m 32.48097,0.0307 c 0.6875,-0.27741 1.8125,-0.27741 2.5,0 0.6875,0.27741 0.125,0.50439 -1.25,0.50439 -1.375,0 -1.9375,-0.22698 -1.25,-0.50439 z M 320,383 c -0.825,-0.53316 -1.05,-0.96937 -0.5,-0.96937 0.55,0 1.675,0.43621 2.5,0.96937 0.825,0.53316 1.05,0.96937 0.5,0.96937 -0.55,0 -1.675,-0.43621 -2.5,-0.96937 z m 422,-8.5 c 2.98742,-3.025 5.65668,-5.5 5.93168,-5.5 0.275,0 -1.94426,2.475 -4.93168,5.5 -2.98742,3.025 -5.65668,5.5 -5.93168,5.5 -0.275,0 1.94426,-2.475 4.93168,-5.5 z m 106.07895,2.91667 c 0.048,-1.16495 0.28494,-1.4019 0.60416,-0.60417 0.28887,0.72187 0.25335,1.58438 -0.0789,1.91667 -0.33229,0.33229 -0.56864,-0.25834 -0.52522,-1.3125 z m -380.31729,-0.12393 c 1.24391,-0.23919 3.04391,-0.23011 4,0.0202 0.95609,0.25029 -0.0617,0.446 -2.26166,0.4349 -2.2,-0.0111 -2.98225,-0.21589 -1.73834,-0.45508 z m 20.50737,0.0143 c 0.97297,-0.25354 2.32297,-0.23687 3,0.0371 0.67703,0.27393 -0.11903,0.48137 -1.76903,0.46099 -1.65,-0.0204 -2.20394,-0.2445 -1.23097,-0.49804 z m 153.45867,-0.0287 c 1.77523,-0.22091 4.92523,-0.22454 7,-0.008 2.07476,0.21648 0.6223,0.39722 -3.2277,0.40166 -3.85,0.004 -5.54754,-0.17268 -3.7723,-0.39359 z M 450.5,371 c 3.26557,-3.3 6.16239,-6 6.43739,-6 0.275,0 -2.17182,2.7 -5.43739,6 -3.26557,3.3 -6.16239,6 -6.43739,6 -0.275,0 2.17182,-2.7 5.43739,-6 z m 12.3125,5.31689 c 0.72187,-0.28887 1.58438,-0.25335 1.91667,0.0789 0.33229,0.33229 -0.25834,0.56864 -1.3125,0.52522 -1.16495,-0.048 -1.4019,-0.28494 -0.60417,-0.60416 z m 61.46767,-0.0532 c 2.6291,-0.20668 6.6791,-0.20418 9,0.006 2.32091,0.20972 0.16983,0.37882 -4.78017,0.37577 -4.95,-0.003 -6.84892,-0.17464 -4.21983,-0.38131 z m 66.98886,0.0433 c 0.97297,-0.25354 2.32297,-0.23687 3,0.0371 0.67703,0.27393 -0.11903,0.48137 -1.76903,0.46099 -1.65,-0.0204 -2.20394,-0.2445 -1.23097,-0.49804 z m 35.48097,-0.0127 c 1.2375,-0.23836 3.2625,-0.23836 4.5,0 1.2375,0.23835 0.225,0.43337 -2.25,0.43337 -2.475,0 -3.4875,-0.19502 -2.25,-0.43337 z m 31,0.0435 c 0.6875,-0.27741 1.8125,-0.27741 2.5,0 0.6875,0.27741 0.125,0.50439 -1.25,0.50439 -1.375,0 -1.9375,-0.22698 -1.25,-0.50439 z m -198.9375,-1.02083 c 0.72187,-0.28887 1.58438,-0.25335 1.91667,0.0789 0.33229,0.33229 -0.25834,0.56864 -1.3125,0.52522 -1.16495,-0.048 -1.4019,-0.28494 -0.60417,-0.60416 z M 518,375.65019 c 0,-0.23109 1.18041,-1.1936 2.62312,-2.13891 1.44272,-0.9453 2.31766,-1.22448 1.94431,-0.62038 C 521.85397,374.04529 518,376.37357 518,375.65019 Z m 79.8125,-0.3333 c 0.72187,-0.28887 1.58438,-0.25335 1.91667,0.0789 0.33229,0.33229 -0.25834,0.56864 -1.3125,0.52522 -1.16495,-0.048 -1.4019,-0.28494 -0.60417,-0.60416 z m 22.24283,-0.0669 c 0.0304,-0.4125 1.49293,-1.84966 3.25,-3.19369 l 3.19467,-2.44369 -2.25915,2.51788 c -1.24253,1.38483 -1.95503,2.82199 -1.58333,3.19369 0.3717,0.37169 -0.0742,0.67581 -0.99085,0.67581 -0.91667,0 -1.64177,-0.3375 -1.61134,-0.75 z m 43.75717,0.0669 c 0.72187,-0.28887 1.58438,-0.25335 1.91667,0.0789 0.33229,0.33229 -0.25834,0.56864 -1.3125,0.52522 -1.16495,-0.048 -1.4019,-0.28494 -0.60417,-0.60416 z M 455.5,374 c 0.33992,-0.55 0.81648,-1 1.05902,-1 0.24254,0 0.44098,0.45 0.44098,1 0,0.55 -0.47656,1 -1.05902,1 -0.58246,0 -0.7809,-0.45 -0.44098,-1 z m 48.5,0 c 0.825,-0.53316 1.95,-0.96937 2.5,-0.96937 0.55,0 0.325,0.43621 -0.5,0.96937 -0.825,0.53316 -1.95,0.96937 -2.5,0.96937 -0.55,0 -0.325,-0.43621 0.5,-0.96937 z m 98.5,0 c 2.74909,-1.18132 4.32797,-1.18132 2.5,0 -0.825,0.53316 -2.175,0.94464 -3,0.9144 -0.98906,-0.0362 -0.81874,-0.34772 0.5,-0.9144 z m 96.76375,0.28242 c 1.52006,-0.22986 3.77006,-0.22371 5,0.0136 1.22994,0.23736 -0.0137,0.42542 -2.76375,0.41792 -2.75,-0.008 -3.75631,-0.20172 -2.23625,-0.43157 z M 346.87244,372.25 c -1.24387,-1.58606 -1.2085,-1.62143 0.37756,-0.37756 1.66575,1.30637 2.19548,2.12756 1.37244,2.12756 -0.20765,0 -0.99515,-0.7875 -1.75,-1.75 z m 115.08577,-3.5 C 466.10217,364.33481 467,363.54091 467,364.29179 c 0,0.16049 -2.1375,2.29799 -4.75,4.75 L 457.5,373.5 Z M 527,368.5 c 1.86578,-1.925 3.61733,-3.5 3.89233,-3.5 0.275,0 -1.02655,1.575 -2.89233,3.5 -1.86578,1.925 -3.61733,3.5 -3.89233,3.5 -0.275,0 1.02655,-1.575 2.89233,-3.5 z m 53.55422,0.39591 c 2.72018,-1.70725 5.95828,-4.03569 7.19578,-5.17431 1.2375,-1.13863 2.25,-1.6826 2.25,-1.20882 0,0.47377 1.4625,-0.46029 3.25,-2.07569 l 3.25,-2.93709 -2.90302,3.21444 c -1.59667,1.76795 -3.23702,3.00803 -3.64522,2.75575 -0.4082,-0.25229 -0.99178,0.19172 -1.29684,0.98669 -0.5536,1.44265 -10.30855,7.51595 -12.1007,7.53374 -0.52018,0.005 1.27982,-1.38746 4,-3.09471 z M 680,369.57037 c 0,-0.275 0.9,-0.98167 2,-1.57037 1.1,-0.5887 2,-0.84537 2,-0.57037 0,0.275 -0.9,0.98167 -2,1.57037 -1.1,0.5887 -2,0.84537 -2,0.57037 z m -165,-0.94793 c 0,-0.20765 0.7875,-0.99515 1.75,-1.75 1.58606,-1.24387 1.62143,-1.2085 0.37756,0.37756 C 515.82119,368.91575 515,369.44548 515,368.62244 Z m 113,0 c 0,-0.20765 0.7875,-0.99515 1.75,-1.75 1.58606,-1.24387 1.62143,-1.2085 0.37756,0.37756 C 628.82119,368.91575 628,369.44548 628,368.62244 Z M 339.40499,365.75 337.5,363.5 l 2.25,1.90499 c 2.11444,1.79022 2.70524,2.59501 1.90499,2.59501 -0.18976,0 -1.20226,-1.0125 -2.25,-2.25 z M 616,367.62244 c 0,-0.20765 0.7875,-0.99515 1.75,-1.75 1.58606,-1.24387 1.62143,-1.2085 0.37756,0.37756 C 616.82119,367.91575 616,368.44548 616,367.62244 Z m 135.48992,-0.63875 c -0.34546,-0.55897 -1.11655,-0.71444 -1.71353,-0.34549 -0.66346,0.41004 -0.79636,0.20313 -0.34187,-0.53225 0.56934,-0.92122 1.07409,-0.92873 2.15451,-0.0321 1.41519,1.1745 1.7937,1.92611 0.96999,1.92611 -0.24254,0 -0.72364,-0.45734 -1.0691,-1.01631 z M 721,366.62244 c 0,-0.20765 0.7875,-0.99515 1.75,-1.75 1.58606,-1.24387 1.62143,-1.2085 0.37756,0.37756 C 721.82119,366.91575 721,367.44548 721,366.62244 Z M 484,365 c 0,-0.55 0.38492,-1 0.85538,-1 0.47045,0 3.80621,-2.70391 7.41279,-6.00868 3.60657,-3.30477 6.46094,-5.35136 6.34302,-4.54797 -0.24402,1.66263 -3.52621,5.55872 -4.48026,5.31823 -0.34701,-0.0875 -2.40637,1.5054 -4.57635,3.53969 C 485.55214,366.05346 484,366.80758 484,365 Z m 12.5,-9 c 0.99549,-1.1 1.58498,-2 1.30998,-2 -0.275,0 -1.31449,0.9 -2.30998,2 -0.99549,1.1 -1.58498,2 -1.30998,2 0.275,0 1.31449,-0.9 2.30998,-2 z m 26.45821,5.75 c 2.45201,-2.6125 4.58951,-4.75 4.75,-4.75 0.75088,0 -0.043,0.89783 -4.45821,5.04179 L 518.5,366.5 Z M 554,365.69257 c 0,-0.20779 2.8125,-2.75625 6.25,-5.66325 3.4375,-2.90699 6.25,-5.65532 6.25,-6.10738 0,-0.45207 0.4875,-1.30944 1.08333,-1.90527 0.77778,-0.77778 1.08334,-0.6362 1.08334,0.50198 0,0.87192 -2.44571,3.82055 -5.4349,6.5525 C 558.30004,363.57847 554,366.66265 554,365.69257 Z M 623.95821,360.75 c 2.45201,-2.6125 4.58951,-4.75 4.75,-4.75 0.75088,0 -0.043,0.89783 -4.45821,5.04179 L 619.5,365.5 Z M 633.5,362 c 0.99549,-1.1 2.03498,-2 2.30998,-2 0.275,0 -0.31449,0.9 -1.30998,2 -0.99549,1.1 -2.03498,2 -2.30998,2 -0.275,0 0.31449,-0.9 1.30998,-2 z m 28.94298,-5.05285 c 3.81863,-4.09593 7.52414,-7.94164 8.23445,-8.54603 0.71032,-0.60438 1.00907,-1.38129 0.6639,-1.72646 -0.34517,-0.34517 0.10924,-0.91033 1.0098,-1.25591 0.90056,-0.34557 1.34544,-1.1007 0.98862,-1.67804 -0.3813,-0.61696 -0.1677,-0.75241 0.51812,-0.32855 0.65459,0.40456 0.83052,1.32224 0.40073,2.09023 -1.72308,3.07898 -10.44537,12.47192 -14.46143,15.57337 -3.56385,2.75222 -3.11234,2.04767 2.64581,-4.12861 z M 689,363.62244 c 0,-0.20765 0.7875,-0.99515 1.75,-1.75 1.58606,-1.24387 1.62143,-1.2085 0.37756,0.37756 C 689.82119,363.91575 689,364.44548 689,363.62244 Z m 156.07895,-1.20577 c 0.048,-1.16495 0.28494,-1.4019 0.60416,-0.60417 0.28887,0.72187 0.25335,1.58438 -0.0789,1.91667 -0.33229,0.33229 -0.56864,-0.25834 -0.52522,-1.3125 z M 467,362.62244 c 0,-0.20765 0.7875,-0.99515 1.75,-1.75 1.58606,-1.24387 1.62143,-1.2085 0.37756,0.37756 C 467.82119,362.91575 467,363.44548 467,362.62244 Z M 533.5,361 c 0.99549,-1.1 2.03498,-2 2.30998,-2 0.275,0 -0.31449,0.9 -1.30998,2 -0.99549,1.1 -2.03498,2 -2.30998,2 -0.275,0 0.31449,-0.9 1.30998,-2 z m -199.62756,-1.75 c -1.24387,-1.58606 -1.2085,-1.62143 0.37756,-0.37756 1.66575,1.30637 2.19548,2.12756 1.37244,2.12756 -0.20765,0 -0.99515,-0.7875 -1.75,-1.75 z M 728.5,358 c 0.99549,-1.1 2.03498,-2 2.30998,-2 0.275,0 -0.31449,0.9 -1.30998,2 -0.99549,1.1 -2.03498,2 -2.30998,2 -0.275,0 0.31449,-0.9 1.30998,-2 z M 536,357.62244 c 0,-0.20765 0.7875,-0.99515 1.75,-1.75 1.58606,-1.24387 1.62143,-1.2085 0.37756,0.37756 C 536.82119,357.91575 536,358.44548 536,357.62244 Z m 60.5826,-1.48879 c -0.29449,-0.4765 0.35395,-1.67124 1.44098,-2.65499 1.08703,-0.98375 1.97642,-1.43879 1.97642,-1.0112 0,0.42758 0.7875,0.17702 1.75,-0.55682 0.9625,-0.73384 0.42831,0.11106 -1.18709,1.87755 -3.27019,3.57607 -3.23322,3.55428 -3.98031,2.34546 z m 2.54496,-1.88365 c 1.24387,-1.58606 1.2085,-1.62143 -0.37756,-0.37756 -0.9625,0.75485 -1.75,1.54235 -1.75,1.75 0,0.82304 0.82119,0.29331 2.12756,-1.37244 z M 473,354 c 0.5887,-1.1 1.29537,-2 1.57037,-2 0.275,0 0.0183,0.9 -0.57037,2 -0.5887,1.1 -1.29537,2 -1.57037,2 -0.275,0 -0.0183,-0.9 0.57037,-2 z m 226.5,-1 c 0.99549,-1.1 2.03498,-2 2.30998,-2 0.275,0 -0.31449,0.9 -1.30998,2 -0.99549,1.1 -2.03498,2 -2.30998,2 -0.275,0 0.31449,-0.9 1.30998,-2 z m -69.5,0.62244 c 0,-0.20765 0.7875,-0.99515 1.75,-1.75 1.58606,-1.24387 1.62143,-1.2085 0.37756,0.37756 C 630.82119,353.91575 630,354.44548 630,353.62244 Z m -129.9425,-4.19172 c 0.64301,-0.77479 1.59806,-1.14359 2.12234,-0.81957 1.16409,0.71945 0.29971,1.70119 -1.76459,2.00417 -1.20466,0.1768 -1.28015,-0.0732 -0.35775,-1.1846 z m 69.49529,0.65469 c -0.32198,-0.52097 -0.15917,-1.21065 0.3618,-1.53262 0.52097,-0.32198 1.21065,-0.15917 1.53262,0.3618 0.32198,0.52097 0.15917,1.21065 -0.3618,1.53262 -0.52097,0.32198 -1.21065,0.15917 -1.53262,-0.3618 z M 634,348 c 0.5887,-1.1 1.29537,-2 1.57037,-2 0.275,0 0.0183,0.9 -0.57037,2 -0.5887,1.1 -1.29537,2 -1.57037,2 -0.275,0 -0.0183,-0.9 0.57037,-2 z m -30,0.62244 c 0,-0.20765 0.7875,-0.99515 1.75,-1.75 1.58606,-1.24387 1.62143,-1.2085 0.37756,0.37756 C 604.82119,348.91575 604,349.44548 604,348.62244 Z m -100.95161,-3.71286 c 1.25744,-2.34955 2.12289,-2.51951 1.25029,-0.24554 -0.47563,1.23947 -0.27626,1.45371 0.78138,0.83968 0.78261,-0.45436 1.07032,-0.44019 0.641,0.0316 -0.42842,0.47076 -1.43498,0.95222 -2.2368,1.0699 -1.13622,0.16676 -1.23238,-0.20732 -0.43587,-1.69561 z M 645.07087,344.5 c 0,-0.55 0.64311,-2.125 1.42913,-3.5 0.78602,-1.375 1.42913,-2.05 1.42913,-1.5 0,0.55 -0.64311,2.125 -1.42913,3.5 -0.78602,1.375 -1.42913,2.05 -1.42913,1.5 z M 576.5,341 c 0.85325,-1.65 1.77636,-3 2.05136,-3 0.275,0 -0.19811,1.35 -1.05136,3 -0.85325,1.65 -1.77636,3 -2.05136,3 -0.275,0 0.19811,-1.35 1.05136,-3 z m 98.15683,1.25376 c -0.26474,-0.42837 0.0857,-1.83851 0.77889,-3.13365 1.07876,-2.01568 1.35249,-2.1144 1.90081,-0.68551 0.42819,1.11585 0.25649,1.4319 -0.51792,0.95329 -0.76912,-0.47534 -0.948,-0.16746 -0.53222,0.91604 0.64183,1.6726 -0.76243,3.35287 -1.62956,1.94983 z M 506.03063,339.5 c 0,-0.55 0.43621,-1.675 0.96937,-2.5 0.53316,-0.825 0.96937,-1.05 0.96937,-0.5 0,0.55 -0.43621,1.675 -0.96937,2.5 -0.53316,0.825 -0.96937,1.05 -0.96937,0.5 z m 133,0 c 0,-0.55 0.43621,-1.675 0.96937,-2.5 0.53316,-0.825 0.96937,-1.05 0.96937,-0.5 0,0.55 -0.43621,1.675 -0.96937,2.5 -0.53316,0.825 -0.96937,1.05 -0.96937,0.5 z M 350,336.5 c -0.71755,-0.86459 -0.81474,-1.5 -0.22943,-1.5 0.5585,0 1.27447,0.675 1.59106,1.5 0.31658,0.825 0.41982,1.5 0.22943,1.5 -0.19039,0 -0.90637,-0.675 -1.59106,-1.5 z m 189.03063,1 c 0,-0.55 0.43621,-1.675 0.96937,-2.5 0.53316,-0.825 0.96937,-1.05 0.96937,-0.5 0,0.55 -0.43621,1.675 -0.96937,2.5 -0.53316,0.825 -0.96937,1.05 -0.96937,0.5 z m 109,0 c 0,-0.55 0.43621,-1.675 0.96937,-2.5 0.53316,-0.825 0.96937,-1.05 0.96937,-0.5 0,0.55 -0.43621,1.675 -0.96937,2.5 -0.53316,0.825 -0.96937,1.05 -0.96937,0.5 z m -251.7616,-1.19299 c 0.97297,-0.25354 2.32297,-0.23687 3,0.0371 0.67703,0.27393 -0.11903,0.48137 -1.76903,0.46099 -1.65,-0.0204 -2.20394,-0.2445 -1.23097,-0.49804 z m -49.72632,-4.23791 c -0.31644,-0.512 -0.0485,-1.25653 0.59549,-1.65451 0.69784,-0.43129 0.9039,-0.29172 0.51008,0.34549 -0.36341,0.58801 -0.0954,1.29701 0.59549,1.57556 0.89914,0.3625 0.91769,0.52891 0.0652,0.58541 -0.65504,0.0434 -1.44988,-0.33996 -1.76631,-0.85195 z m 30.32973,-2.8191 c -1.24387,-1.58606 -1.2085,-1.62143 0.37756,-0.37756 0.9625,0.75485 1.75,1.54235 1.75,1.75 0,0.82304 -0.82119,0.29331 -2.12756,-1.37244 z m 107.20651,-0.83333 c 0.048,-1.16495 0.28494,-1.4019 0.60416,-0.60417 0.28887,0.72187 0.25335,1.58438 -0.0789,1.91667 -0.33229,0.33229 -0.56864,-0.25834 -0.52522,-1.3125 z m 94,0 c 0.048,-1.16495 0.28494,-1.4019 0.60416,-0.60417 0.28887,0.72187 0.25335,1.58438 -0.0789,1.91667 -0.33229,0.33229 -0.56864,-0.25834 -0.52522,-1.3125 z M 615.03063,329.5 c 0,-0.55 0.43621,-1.675 0.96937,-2.5 0.53316,-0.825 0.96937,-1.05 0.96937,-0.5 0,0.55 -0.43621,1.675 -0.96937,2.5 -0.53316,0.825 -0.96937,1.05 -0.96937,0.5 z m 36.04832,-1.08333 c 0.048,-1.16495 0.28494,-1.4019 0.60416,-0.60417 0.28887,0.72187 0.25335,1.58438 -0.0789,1.91667 -0.33229,0.33229 -0.56864,-0.25834 -0.52522,-1.3125 z m -100,-4 c 0.048,-1.16495 0.28494,-1.4019 0.60416,-0.60417 0.28887,0.72187 0.25335,1.58438 -0.0789,1.91667 -0.33229,0.33229 -0.56864,-0.25834 -0.52522,-1.3125 z M 579.15789,324 c 0,-1.375 0.22698,-1.9375 0.50439,-1.25 0.27741,0.6875 0.27741,1.8125 0,2.5 -0.27741,0.6875 -0.50439,0.125 -0.50439,-1.25 z m 72.92106,0.41667 c 0.048,-1.16495 0.28494,-1.4019 0.60416,-0.60417 0.28887,0.72187 0.25335,1.58438 -0.0789,1.91667 -0.33229,0.33229 -0.56864,-0.25834 -0.52522,-1.3125 z M 368.87244,321.25 c -1.24387,-1.58606 -1.2085,-1.62143 0.37756,-0.37756 1.66575,1.30637 2.19548,2.12756 1.37244,2.12756 -0.20765,0 -0.99515,-0.7875 -1.75,-1.75 z M 486.14057,322 c 0,-0.825 0.38674,-2.4 0.85943,-3.5 0.54172,-1.26064 0.85943,-1.44548 0.85943,-0.5 0,0.825 -0.38674,2.4 -0.85943,3.5 -0.54172,1.26064 -0.85943,1.44548 -0.85943,0.5 z m 65.93838,-1.58333 c 0.048,-1.16495 0.28494,-1.4019 0.60416,-0.60417 0.28887,0.72187 0.25335,1.58438 -0.0789,1.91667 -0.33229,0.33229 -0.56864,-0.25834 -0.52522,-1.3125 z m 101,0 c 0.048,-1.16495 0.28494,-1.4019 0.60416,-0.60417 0.28887,0.72187 0.25335,1.58438 -0.0789,1.91667 -0.33229,0.33229 -0.56864,-0.25834 -0.52522,-1.3125 z m -108,-1 c 0.048,-1.16495 0.28494,-1.4019 0.60416,-0.60417 0.28887,0.72187 0.25335,1.58438 -0.0789,1.91667 -0.33229,0.33229 -0.56864,-0.25834 -0.52522,-1.3125 z m 201,0 c 0.048,-1.16495 0.28494,-1.4019 0.60416,-0.60417 0.28887,0.72187 0.25335,1.58438 -0.0789,1.91667 -0.33229,0.33229 -0.56864,-0.25834 -0.52522,-1.3125 z M 580.15789,318 c 0,-1.375 0.22698,-1.9375 0.50439,-1.25 0.27741,0.6875 0.27741,1.8125 0,2.5 -0.27741,0.6875 -0.50439,0.125 -0.50439,-1.25 z m 65.92106,0.41667 c 0.048,-1.16495 0.28494,-1.4019 0.60416,-0.60417 0.28887,0.72187 0.25335,1.58438 -0.0789,1.91667 -0.33229,0.33229 -0.56864,-0.25834 -0.52522,-1.3125 z m 70,-2 c 0.048,-1.16495 0.28494,-1.4019 0.60416,-0.60417 0.28887,0.72187 0.25335,1.58438 -0.0789,1.91667 -0.33229,0.33229 -0.56864,-0.25834 -0.52522,-1.3125 z m -170,-1 c 0.048,-1.16495 0.28494,-1.4019 0.60416,-0.60417 0.28887,0.72187 0.25335,1.58438 -0.0789,1.91667 -0.33229,0.33229 -0.56864,-0.25834 -0.52522,-1.3125 z m 108,0 c 0.048,-1.16495 0.28494,-1.4019 0.60416,-0.60417 0.28887,0.72187 0.25335,1.58438 -0.0789,1.91667 -0.33229,0.33229 -0.56864,-0.25834 -0.52522,-1.3125 z m -139,-1 c 0.048,-1.16495 0.28494,-1.4019 0.60416,-0.60417 0.28887,0.72187 0.25335,1.58438 -0.0789,1.91667 -0.33229,0.33229 -0.56864,-0.25834 -0.52522,-1.3125 z m 38,0 c 0.048,-1.16495 0.28494,-1.4019 0.60416,-0.60417 0.28887,0.72187 0.25335,1.58438 -0.0789,1.91667 -0.33229,0.33229 -0.56864,-0.25834 -0.52522,-1.3125 z m 130,0 c 0.048,-1.16495 0.28494,-1.4019 0.60416,-0.60417 0.28887,0.72187 0.25335,1.58438 -0.0789,1.91667 -0.33229,0.33229 -0.56864,-0.25834 -0.52522,-1.3125 z m 64,0 c 0.048,-1.16495 0.28494,-1.4019 0.60416,-0.60417 0.28887,0.72187 0.25335,1.58438 -0.0789,1.91667 -0.33229,0.33229 -0.56864,-0.25834 -0.52522,-1.3125 z m -259,-1 c 0.048,-1.16495 0.28494,-1.4019 0.60416,-0.60417 0.28887,0.72187 0.25335,1.58438 -0.0789,1.91667 -0.33229,0.33229 -0.56864,-0.25834 -0.52522,-1.3125 z m 159,0 c 0.048,-1.16495 0.28494,-1.4019 0.60416,-0.60417 0.28887,0.72187 0.25335,1.58438 -0.0789,1.91667 -0.33229,0.33229 -0.56864,-0.25834 -0.52522,-1.3125 z m -283.62007,-0.4832 c -0.36253,-0.58659 -0.44468,-1.281 -0.18255,-1.54313 0.26212,-0.26213 0.74306,0.21781 1.06875,1.06653 0.67618,1.76211 0.0999,2.07206 -0.8862,0.4766 z m 256.62007,-0.5168 c 0.048,-1.16495 0.28494,-1.4019 0.60416,-0.60417 0.28887,0.72187 0.25335,1.58438 -0.0789,1.91667 -0.33229,0.33229 -0.56864,-0.25834 -0.52522,-1.3125 z M 717.15789,312 c 0,-1.375 0.22698,-1.9375 0.50439,-1.25 0.27741,0.6875 0.27741,1.8125 0,2.5 -0.27741,0.6875 -0.50439,0.125 -0.50439,-1.25 z m -130.07894,-0.58333 c 0.048,-1.16495 0.28494,-1.4019 0.60416,-0.60417 0.28887,0.72187 0.25335,1.58438 -0.0789,1.91667 -0.33229,0.33229 -0.56864,-0.25834 -0.52522,-1.3125 z m 100,0 c 0.048,-1.16495 0.28494,-1.4019 0.60416,-0.60417 0.28887,0.72187 0.25335,1.58438 -0.0789,1.91667 -0.33229,0.33229 -0.56864,-0.25834 -0.52522,-1.3125 z M 244.95821,307.75 c 2.45201,-2.6125 4.58951,-4.75 4.75,-4.75 0.75088,0 -0.043,0.89783 -4.45821,5.04179 L 240.5,312.5 Z m 302.12074,2.66667 c 0.048,-1.16495 0.28494,-1.4019 0.60416,-0.60417 0.28887,0.72187 0.25335,1.58438 -0.0789,1.91667 -0.33229,0.33229 -0.56864,-0.25834 -0.52522,-1.3125 z m -31,-1 c 0.048,-1.16495 0.28494,-1.4019 0.60416,-0.60417 0.28887,0.72187 0.25335,1.58438 -0.0789,1.91667 -0.33229,0.33229 -0.56864,-0.25834 -0.52522,-1.3125 z M 748.15789,309 c 0,-1.375 0.22698,-1.9375 0.50439,-1.25 0.27741,0.6875 0.27741,1.8125 0,2.5 -0.27741,0.6875 -0.50439,0.125 -0.50439,-1.25 z m -258.96294,-1.5 c 0.0204,-1.65 0.2445,-2.20394 0.49804,-1.23097 0.25354,0.97297 0.23687,2.32297 -0.0371,3 -0.27393,0.67703 -0.48137,-0.11903 -0.46099,-1.76903 z m 29.96294,0.5 c 0,-1.375 0.22698,-1.9375 0.50439,-1.25 0.27741,0.6875 0.27741,1.8125 0,2.5 -0.27741,0.6875 -0.50439,0.125 -0.50439,-1.25 z m 35.07411,-1 c 0,-1.925 0.2058,-2.7125 0.45733,-1.75 0.25152,0.9625 0.25152,2.5375 0,3.5 -0.25153,0.9625 -0.45733,0.175 -0.45733,-1.75 z m 93.92589,1 c 0,-1.375 0.22698,-1.9375 0.50439,-1.25 0.27741,0.6875 0.27741,1.8125 0,2.5 -0.27741,0.6875 -0.50439,0.125 -0.50439,-1.25 z m 7.03706,-0.5 c 0.0204,-1.65 0.2445,-2.20394 0.49804,-1.23097 0.25354,0.97297 0.23687,2.32297 -0.0371,3 -0.27393,0.67703 -0.48137,-0.11903 -0.46099,-1.76903 z m -38.116,-0.0833 c 0.048,-1.16495 0.28494,-1.4019 0.60416,-0.60417 0.28887,0.72187 0.25335,1.58438 -0.0789,1.91667 -0.33229,0.33229 -0.56864,-0.25834 -0.52522,-1.3125 z M 621.15789,307 c 0,-1.375 0.22698,-1.9375 0.50439,-1.25 0.27741,0.6875 0.27741,1.8125 0,2.5 -0.27741,0.6875 -0.50439,0.125 -0.50439,-1.25 z m 63.09429,-1.5 c 0.0111,-2.2 0.21589,-2.98225 0.45508,-1.73834 0.23919,1.24391 0.23011,3.04391 -0.0202,4 -0.25029,0.95609 -0.446,-0.0617 -0.4349,-2.26166 z m 3.90571,1.5 c 0,-1.375 0.22698,-1.9375 0.50439,-1.25 0.27741,0.6875 0.27741,1.8125 0,2.5 -0.27741,0.6875 -0.50439,0.125 -0.50439,-1.25 z m -106.88553,-3 c 0,-2.475 0.19502,-3.4875 0.43337,-2.25 0.23836,1.2375 0.23836,3.2625 0,4.5 -0.23835,1.2375 -0.43337,0.225 -0.43337,-2.25 z m 6.88553,2 c 0,-1.375 0.22698,-1.9375 0.50439,-1.25 0.27741,0.6875 0.27741,1.8125 0,2.5 -0.27741,0.6875 -0.50439,0.125 -0.50439,-1.25 z m 130,0 c 0,-1.375 0.22698,-1.9375 0.50439,-1.25 0.27741,0.6875 0.27741,1.8125 0,2.5 -0.27741,0.6875 -0.50439,0.125 -0.50439,-1.25 z M 215,305.68709 c 0,-0.1721 1.4625,-1.6346 3.25,-3.25 l 3.25,-2.93709 -2.93709,3.25 C 215.82513,305.77946 215,306.45965 215,305.68709 Z m 94.07895,-1.27042 c 0.048,-1.16495 0.28494,-1.4019 0.60416,-0.60417 0.28887,0.72187 0.25335,1.58438 -0.0789,1.91667 -0.33229,0.33229 -0.56864,-0.25834 -0.52522,-1.3125 z M 517.15789,304 c 0,-1.375 0.22698,-1.9375 0.50439,-1.25 0.27741,0.6875 0.27741,1.8125 0,2.5 -0.27741,0.6875 -0.50439,0.125 -0.50439,-1.25 z m 31.07411,-1 c 0,-1.925 0.2058,-2.7125 0.45733,-1.75 0.25152,0.9625 0.25152,2.5375 0,3.5 -0.25153,0.9625 -0.45733,0.175 -0.45733,-1.75 z m -66.15305,0.41667 c 0.048,-1.16495 0.28494,-1.4019 0.60416,-0.60417 0.28887,0.72187 0.25335,1.58438 -0.0789,1.91667 -0.33229,0.33229 -0.56864,-0.25834 -0.52522,-1.3125 z M 749.19495,302.5 c 0.0204,-1.65 0.2445,-2.20394 0.49804,-1.23097 0.25354,0.97297 0.23687,2.32297 -0.0371,3 -0.27393,0.67703 -0.48137,-0.11903 -0.46099,-1.76903 z m -228.94277,-2 c 0.0111,-2.2 0.21589,-2.98225 0.45508,-1.73834 0.23919,1.24391 0.23011,3.04391 -0.0202,4 -0.25029,0.95609 -0.446,-0.0617 -0.4349,-2.26166 z m 97.90571,1.5 c 0,-1.375 0.22698,-1.9375 0.50439,-1.25 0.27741,0.6875 0.27741,1.8125 0,2.5 -0.27741,0.6875 -0.50439,0.125 -0.50439,-1.25 z m 71,-1 c 0,-1.375 0.22698,-1.9375 0.50439,-1.25 0.27741,0.6875 0.27741,1.8125 0,2.5 -0.27741,0.6875 -0.50439,0.125 -0.50439,-1.25 z m -352.07894,-0.58333 c 0.048,-1.16495 0.28494,-1.4019 0.60416,-0.60417 0.28887,0.72187 0.25335,1.58438 -0.0789,1.91667 -0.33229,0.33229 -0.56864,-0.25834 -0.52522,-1.3125 z M 490.27236,298 c 0,-2.475 0.19502,-3.4875 0.43337,-2.25 0.23836,1.2375 0.23836,3.2625 0,4.5 -0.23835,1.2375 -0.43337,0.225 -0.43337,-2.25 z m 98.95964,1 c 0,-1.925 0.2058,-2.7125 0.45733,-1.75 0.25152,0.9625 0.25152,2.5375 0,3.5 -0.25153,0.9625 -0.45733,0.175 -0.45733,-1.75 z m 33,0 c 0,-1.925 0.2058,-2.7125 0.45733,-1.75 0.25152,0.9625 0.25152,2.5375 0,3.5 -0.25153,0.9625 -0.45733,0.175 -0.45733,-1.75 z m 27.13796,-7 c 0,-5.775 0.16528,-8.1375 0.36728,-5.25 0.202,2.8875 0.202,7.6125 0,10.5 -0.202,2.8875 -0.36728,0.525 -0.36728,-5.25 z m 6.43366,-7 c -0.77664,-18.40147 -2.66622,-28.41411 -8.08464,-42.83959 -8.02957,-21.3771 -23.72709,-40.32231 -41.01973,-49.50634 l -4.80075,-2.54965 3.87717,-1.04402 c 6.73781,-1.8143 23.85361,-2.79465 33.93735,-1.94385 17.00819,1.43505 31.02046,7.00381 44.40131,17.64598 18.51855,14.72832 27.78529,30.98235 33.35974,58.51361 C 718.86333,270.13747 720,276.25725 720,276.87564 720,277.65629 715.57891,278 705.53753,278 h -14.46248 l -0.32998,9.25 c -0.28021,7.85481 -0.36129,7.24513 -0.53753,-4.04216 -0.21363,-13.68189 -1.85126,-24.17017 -5.41925,-34.70784 -11.23535,-33.18235 -36.91893,-57.84501 -62.49477,-60.01062 l -6.79352,-0.57523 6.35054,3.02689 c 9.05772,4.31723 17.76514,10.81134 27.9416,20.83922 9.96795,9.82242 14.90053,16.65526 21.45446,29.71974 6.06891,12.09765 14.15222,38.43451 12.34958,40.23715 C 683.26828,282.06505 683,281.35833 683,280.16667 683,278.05583 682.66585,278 670.03174,278 H 657.06347 L 656.78174,289.75 656.5,301.5 Z m -347.64573,13 c 0,-1.375 0.22698,-1.9375 0.50439,-1.25 0.27741,0.6875 0.27741,1.8125 0,2.5 -0.27741,0.6875 -0.50439,0.125 -0.50439,-1.25 z m 411.21207,-8 c 0,-5.775 0.16528,-8.1375 0.36728,-5.25 0.202,2.8875 0.202,7.6125 0,10.5 -0.202,2.8875 -0.36728,0.525 -0.36728,-5.25 z M 224.5,297 c 0.99549,-1.1 2.03498,-2 2.30998,-2 0.275,0 -0.31449,0.9 -1.30998,2 -0.99549,1.1 -2.03498,2 -2.30998,2 -0.275,0 0.31449,-0.9 1.30998,-2 z m 293.65789,0 c 0,-1.375 0.22698,-1.9375 0.50439,-1.25 0.27741,0.6875 0.27741,1.8125 0,2.5 -0.27741,0.6875 -0.50439,0.125 -0.50439,-1.25 z m 101.03706,-1.5 c 0.0204,-1.65 0.2445,-2.20394 0.49804,-1.23097 0.25354,0.97297 0.23687,2.32297 -0.0371,3 -0.27393,0.67703 -0.48137,-0.11903 -0.46099,-1.76903 z M 483.232,294 c 0,-1.925 0.2058,-2.7125 0.45733,-1.75 0.25152,0.9625 0.25152,2.5375 0,3.5 -0.25153,0.9625 -0.45733,0.175 -0.45733,-1.75 z m 72.11741,-5 c 0,-4.675 0.17226,-6.5875 0.3828,-4.25 0.21053,2.3375 0.21053,6.1625 0,8.5 -0.21054,2.3375 -0.3828,0.425 -0.3828,-4.25 z m -219.27046,4.41667 c 0.048,-1.16495 0.28494,-1.4019 0.60416,-0.60417 0.28887,0.72187 0.25335,1.58438 -0.0789,1.91667 -0.33229,0.33229 -0.56864,-0.25834 -0.52522,-1.3125 z M 269,292 c 0.825,-0.53316 1.95,-0.96937 2.5,-0.96937 0.55,0 0.325,0.43621 -0.5,0.96937 -0.825,0.53316 -1.95,0.96937 -2.5,0.96937 -0.55,0 -0.325,-0.43621 0.5,-0.96937 z m 415.27236,-3 c 0,-2.475 0.19502,-3.4875 0.43337,-2.25 0.23836,1.2375 0.23836,3.2625 0,4.5 -0.23835,1.2375 -0.43337,0.225 -0.43337,-2.25 z m -327.11447,1 c 0,-1.375 0.22698,-1.9375 0.50439,-1.25 0.27741,0.6875 0.27741,1.8125 0,2.5 -0.27741,0.6875 -0.50439,0.125 -0.50439,-1.25 z m 223.09429,-1.5 c 0.0111,-2.2 0.21589,-2.98225 0.45508,-1.73834 0.23919,1.24391 0.23011,3.04391 -0.0202,4 -0.25029,0.95609 -0.446,-0.0617 -0.4349,-2.26166 z m -249.05723,0 c 0.0204,-1.65 0.2445,-2.20394 0.49804,-1.23097 0.25354,0.97297 0.23687,2.32297 -0.0371,3 -0.27393,0.67703 -0.48137,-0.11903 -0.46099,-1.76903 z m 159.59697,-16 c -0.38945,-10.45 -1.37012,-22.21362 -2.17927,-26.14138 -3.0884,-14.99161 -9.48489,-30.97095 -17.29109,-43.19559 -3.58979,-5.62168 -3.4797,-5.59747 5.24565,1.15365 6.21653,4.80996 20.65506,13.79439 21.23554,13.2139 0.68897,-0.68896 -6.22043,-9.61435 -10.97839,-14.18162 C 482.3989,199.10086 469.90744,191 467.78239,191 c -2.78467,0 1.0939,-1.86503 6.01683,-2.89322 13.23715,-2.76468 32.58057,-0.64331 44.70078,4.90227 13.85437,6.33905 30.97604,20.78292 40.13757,33.86013 9.2468,13.19892 18.97648,37.12618 20.58831,50.63082 0.26258,2.2 0.28457,3.18729 0.0489,2.19397 -0.38922,-1.64034 -1.54535,-1.77796 -12.60164,-1.5 L 554.5,278.5 l -0.26663,-3.4691 c -0.47649,-6.19965 -4.99655,-24.59528 -7.77666,-31.64927 C 541.0172,229.57994 532.49273,217.41197 520.21733,205.9271 507.63623,194.15622 495.80692,188.06895 485.5,188.06184 l -5,-0.003 8.0274,4.22081 c 22.56298,11.8636 41.08566,30.57901 49.70364,50.2208 3.66374,8.35025 9.45155,27.99541 10.017,34 0.25897,2.75 0.2778,4.2125 0.0419,3.25 -0.3818,-1.55749 -1.89268,-1.75 -13.73444,-1.75 H 521.25 l -0.80047,3.25 -0.80048,3.25 -0.38788,-3.25 -0.38789,-3.25 h -13.39095 -13.39095 l -0.29569,6.75 c -0.16263,3.7125 -0.61433,-1.8 -1.00377,-12.25 z m 28.92566,-2.23625 c -0.22985,-1.52006 -0.42406,-0.51375 -0.43157,2.23625 -0.008,2.75 0.18056,3.99369 0.41792,2.76375 0.23736,-1.22994 0.24351,-3.47994 0.0136,-5 z M 307.232,286 c 0,-1.925 0.2058,-2.7125 0.45733,-1.75 0.25152,0.9625 0.25152,2.5375 0,3.5 -0.25153,0.9625 -0.45733,0.175 -0.45733,-1.75 z m 132.09614,-4.5 c 0.004,-3.85 0.18518,-5.30246 0.40166,-3.2277 0.21647,2.07477 0.21284,5.22477 -0.008,7 -0.22091,1.77524 -0.39803,0.0777 -0.39359,-3.7723 z M 620,283 v -5 h -14.95469 -14.95468 l -0.61725,-3.75 c -1.80329,-10.95559 -3.8995,-20.39914 -5.71583,-25.75 -4.55541,-13.42021 -13.33112,-27.83032 -23.53748,-38.6496 C 553.91632,203.1681 536.68133,191 533.52021,191 c -0.90103,0 -1.38906,-0.40318 -1.08451,-0.89596 1.07495,-1.73931 17.85521,-3.37068 29.00881,-2.82023 8.64077,0.42643 12.91204,1.18718 19.55549,3.483 16.48195,5.69579 24.88251,11.17359 37.70591,24.58709 10.00786,10.46841 15.36081,18.65112 21.51582,32.88986 3.32072,7.682 8.77827,25.63981 8.77827,28.88446 0,0.47948 -5.84143,0.87178 -12.98095,0.87178 -14.80302,0 -13.09587,1.27086 -14.77633,-11 -0.69028,-5.04054 -0.78383,-3.41269 -0.41665,7.25 0.26042,7.5625 0.18109,13.75 -0.17629,13.75 C 620.2924,288 620,285.75 620,283 Z m -0.33772,-26.25 c -0.27741,-0.6875 -0.50439,-0.125 -0.50439,1.25 0,1.375 0.22698,1.9375 0.50439,1.25 0.27741,-0.6875 0.27741,-1.8125 0,-2.5 z m -20.56027,-42.55939 c -1.62285,-3.03233 -15.6049,-15.81498 -20.32394,-18.58052 -6.50604,-3.81279 -15.19696,-6.54212 -23.20053,-7.28597 l -7.04909,-0.65514 6.3342,5.91551 c 7.53356,7.03561 17.16701,12.25737 30.13735,16.33579 5.225,1.64296 10.4,3.6687 11.5,4.50165 2.70904,2.05137 3.77304,1.95678 2.60201,-0.23132 z M 590.25218,283.5 c 0.0111,-2.2 0.21589,-2.98225 0.45508,-1.73834 0.23919,1.24391 0.23011,3.04391 -0.0202,4 -0.25029,0.95609 -0.446,-0.0617 -0.4349,-2.26166 z M 357.15789,276 c 0,-1.375 0.22698,-1.9375 0.50439,-1.25 0.27741,0.6875 0.27741,1.8125 0,2.5 -0.27741,0.6875 -0.50439,0.125 -0.50439,-1.25 z m -25.96294,-1.5 c 0.0204,-1.65 0.2445,-2.20394 0.49804,-1.23097 0.25354,0.97297 0.23687,2.32297 -0.0371,3 -0.27393,0.67703 -0.48137,-0.11903 -0.46099,-1.76903 z M 749.232,272 c 0,-1.925 0.2058,-2.7125 0.45733,-1.75 0.25152,0.9625 0.25152,2.5375 0,3.5 -0.25153,0.9625 -0.45733,0.175 -0.45733,-1.75 z m -413.15305,-1.58333 c 0.048,-1.16495 0.28494,-1.4019 0.60416,-0.60417 0.28887,0.72187 0.25335,1.58438 -0.0789,1.91667 -0.33229,0.33229 -0.56864,-0.25834 -0.52522,-1.3125 z m 22,-1 c 0.048,-1.16495 0.28494,-1.4019 0.60416,-0.60417 0.28887,0.72187 0.25335,1.58438 -0.0789,1.91667 -0.33229,0.33229 -0.56864,-0.25834 -0.52522,-1.3125 z M 483.232,268 c 0,-1.925 0.2058,-2.7125 0.45733,-1.75 0.25152,0.9625 0.25152,2.5375 0,3.5 -0.25153,0.9625 -0.45733,0.175 -0.45733,-1.75 z m 264.92589,-4 c 0,-1.375 0.22698,-1.9375 0.50439,-1.25 0.27741,0.6875 0.27741,1.8125 0,2.5 -0.27741,0.6875 -0.50439,0.125 -0.50439,-1.25 z m -266,-6 c 0,-1.375 0.22698,-1.9375 0.50439,-1.25 0.27741,0.6875 0.27741,1.8125 0,2.5 -0.27741,0.6875 -0.50439,0.125 -0.50439,-1.25 z M 365,251 c 0.5887,-1.1 1.29537,-2 1.57037,-2 0.275,0 0.0183,0.9 -0.57037,2 -0.5887,1.1 -1.29537,2 -1.57037,2 -0.275,0 -0.0183,-0.9 0.57037,-2 z m 116.07895,0.41667 c 0.048,-1.16495 0.28494,-1.4019 0.60416,-0.60417 0.28887,0.72187 0.25335,1.58437 -0.0789,1.91667 -0.33229,0.33229 -0.56864,-0.25834 -0.52522,-1.3125 z M 367,247.62244 c 0,-0.20765 0.7875,-0.99515 1.75,-1.75 1.58606,-1.24387 1.62143,-1.2085 0.37756,0.37756 C 367.82119,247.91575 367,248.44548 367,247.62244 Z M 789.87244,245.25 c -1.24387,-1.58606 -1.2085,-1.62143 0.37756,-0.37756 1.66575,1.30637 2.19548,2.12756 1.37244,2.12756 -0.20765,0 -0.99515,-0.7875 -1.75,-1.75 z m -363.46745,-1.5 -1.90499,-2.25 2.25,1.90499 c 1.2375,1.04774 2.25,2.06024 2.25,2.25 0,0.80025 -0.80479,0.20945 -2.59501,-1.90499 z m 46.20768,-0.1571 c -0.33228,-1.3239 -0.89729,-3.2364 -1.25558,-4.25 -0.44637,-1.26274 -0.32347,-1.52809 0.39038,-0.8429 1.08928,1.04555 2.75917,7.5 1.94039,7.5 -0.25907,0 -0.74291,-1.08319 -1.07519,-2.4071 z M 372,241.5 c 1.29175,-1.375 2.57363,-2.5 2.84863,-2.5 0.275,0 -0.55688,1.125 -1.84863,2.5 -1.29175,1.375 -2.57363,2.5 -2.84863,2.5 -0.275,0 0.55688,-1.125 1.84863,-2.5 z m 48.92431,-3.25 -2.42431,-2.75 2.75,2.42431 c 2.57029,2.26589 3.20859,3.07569 2.42431,3.07569 -0.17912,0 -1.41662,-1.2375 -2.75,-2.75 z M 377,237.62244 c 0,-0.20765 0.7875,-0.99515 1.75,-1.75 1.58606,-1.24387 1.62143,-1.2085 0.37756,0.37756 C 377.82119,237.91575 377,238.44548 377,237.62244 Z M 470.5,236 c 0.33992,-0.55 0.81648,-1 1.05902,-1 0.24254,0 0.44098,0.45 0.44098,1 0,0.55 -0.47656,1 -1.05902,1 -0.58246,0 -0.7809,-0.45 -0.44098,-1 z m 310.42431,-1.75 -2.42431,-2.75 2.75,2.42431 c 1.5125,1.33338 2.75,2.57088 2.75,2.75 0,0.78428 -0.8098,0.14598 -3.07569,-2.42431 z m -383.66056,-4.96758 c 1.52006,-0.22986 3.77006,-0.22371 5,0.0136 1.22994,0.23736 -0.0138,0.42542 -2.76375,0.41792 -2.75,-0.008 -3.75631,-0.20172 -2.23625,-0.43157 z m -45.33944,-2.62117 c 2.86619,-3.1463 2.97544,-3.18399 2.64188,-0.91125 -0.14127,0.9625 -0.66395,1.75689 -1.16152,1.76531 -0.49757,0.008 -1.57967,0.41849 -2.40467,0.91125 -0.825,0.49277 -0.40906,-0.30162 0.92431,-1.76531 z m 113.63998,-0.36812 c -0.54268,-1.4252 -0.42782,-1.54006 0.5598,-0.5598 0.68342,0.67834 0.99067,1.48524 0.68278,1.79313 -0.30789,0.30789 -0.86705,-0.24711 -1.24258,-1.23333 z M 770,222.5 c -2.42903,-2.475 -4.19142,-4.5 -3.91642,-4.5 0.275,0 2.48739,2.025 4.91642,4.5 2.42903,2.475 4.19142,4.5 3.91642,4.5 -0.275,0 -2.48739,-2.025 -4.91642,-4.5 z m -412.11914,-1.21976 c 2.29648,-3.34233 3.95125,-4.78146 4.67069,-4.06202 0.23017,0.23017 -1.22433,1.96273 -3.23223,3.85013 L 355.6686,224.5 Z M 723.94617,210.25 720.5,206.5 l 3.75,3.44617 c 3.49042,3.20761 4.20979,4.05383 3.44617,4.05383 -0.16711,0 -1.85461,-1.6875 -3.75,-3.75 z m 33.97814,1 -2.42431,-2.75 2.75,2.42431 c 1.5125,1.33338 2.75,2.57088 2.75,2.75 0,0.78428 -0.8098,0.14598 -3.07569,-2.42431 z M 333,207.62244 c 0,-0.20765 0.7875,-0.99515 1.75,-1.75 1.58606,-1.24387 1.62143,-1.2085 0.37756,0.37756 C 333.82119,207.91575 333,208.44548 333,207.62244 Z M 751.87244,206.25 c -1.24387,-1.58606 -1.2085,-1.62143 0.37756,-0.37756 0.9625,0.75485 1.75,1.54235 1.75,1.75 0,0.82304 -0.82119,0.29331 -2.12756,-1.37244 z m -301,-2 c -1.24387,-1.58606 -1.2085,-1.62143 0.37756,-0.37756 0.9625,0.75485 1.75,1.54235 1.75,1.75 0,0.82304 -0.82119,0.29331 -2.12756,-1.37244 z M 341,198.5 c 1.29175,-1.375 2.57363,-2.5 2.84863,-2.5 0.275,0 -0.55688,1.125 -1.84863,2.5 -1.29175,1.375 -2.57363,2.5 -2.84863,2.5 -0.275,0 0.55688,-1.125 1.84863,-2.5 z m 107.43709,-2.75 -2.93709,-3.25 3.25,2.93709 c 1.7875,1.6154 3.25,3.0779 3.25,3.25 0,0.77256 -0.82513,0.0924 -3.56291,-2.93709 z m 253.37541,1.56689 c 0.72187,-0.28887 1.58438,-0.25335 1.91667,0.0789 0.33229,0.33229 -0.25834,0.56864 -1.3125,0.52522 -1.16495,-0.048 -1.4019,-0.28494 -0.60417,-0.60416 z M 441.40499,194.75 439.5,192.5 l 2.25,1.90499 c 2.11444,1.79022 2.70524,2.59501 1.90499,2.59501 -0.18976,0 -1.20226,-1.0125 -2.25,-2.25 z m 11.04796,-2 -3.95295,-4.25 4.25,3.95295 c 3.95246,3.6762 4.70953,4.54705 3.95295,4.54705 -0.16338,0 -2.07588,-1.9125 -4.25,-4.25 z M 350,190.62244 c 0,-0.20765 0.7875,-0.99515 1.75,-1.75 1.58606,-1.24387 1.62143,-1.2085 0.37756,0.37756 C 350.82119,190.91575 350,191.44548 350,190.62244 Z M 726,189 c -0.90129,-0.58246 -1.02463,-0.97549 -0.30902,-0.98469 0.65504,-0.008 1.4691,0.43469 1.80902,0.98469 0.7673,1.24153 0.42112,1.24153 -1.5,0 z m -295,-5.5 c -1.375,-0.78602 -2.02351,-1.44508 -1.44113,-1.46456 0.58238,-0.0195 1.93238,0.62525 3,1.43276 2.46898,1.86744 1.68038,1.88353 -1.55887,0.0318 z m -10.26667,-3.62409 c 0.67834,-0.68342 1.48524,-0.99067 1.79313,-0.68278 0.30789,0.30789 -0.24711,0.86705 -1.23333,1.24258 -1.4252,0.54268 -1.54006,0.42782 -0.5598,-0.5598 z M 415.5,178.473 l -3,-1.33357 3.5,0.57393 c 3.98431,0.65334 4.46314,0.88286 3.31653,1.58979 -0.44909,0.27688 -2.16653,-0.0967 -3.81653,-0.83015 z M 431,178 c -0.90129,-0.58246 -1.02463,-0.97549 -0.30902,-0.98469 0.65504,-0.008 1.4691,0.43469 1.80902,0.98469 0.7673,1.24153 0.42112,1.24153 -1.5,0 z m 267.8125,0.31689 c 0.72187,-0.28887 1.58438,-0.25335 1.91667,0.0789 0.33229,0.33229 -0.25834,0.56864 -1.3125,0.52522 -1.16495,-0.048 -1.4019,-0.28494 -0.60417,-0.60416 z m -20,-1 c 0.72187,-0.28887 1.58438,-0.25335 1.91667,0.0789 0.33229,0.33229 -0.25834,0.56864 -1.3125,0.52522 -1.16495,-0.048 -1.4019,-0.28494 -0.60417,-0.60416 z m 12.45653,-0.01 c 0.97297,-0.25354 2.32297,-0.23687 3,0.0371 0.67703,0.27393 -0.11903,0.48137 -1.76903,0.46099 -1.65,-0.0204 -2.20394,-0.2445 -1.23097,-0.49804 z m -307.45653,-3.99 c 0.72187,-0.28887 1.58438,-0.25335 1.91667,0.0789 0.33229,0.33229 -0.25834,0.56864 -1.3125,0.52522 -1.16495,-0.048 -1.4019,-0.28494 -0.60417,-0.60416 z m 5,-1 c 0.72187,-0.28887 1.58438,-0.25335 1.91667,0.0789 0.33229,0.33229 -0.25834,0.56864 -1.3125,0.52522 -1.16495,-0.048 -1.4019,-0.28494 -0.60417,-0.60416 z m 23,0 c 0.72187,-0.28887 1.58438,-0.25335 1.91667,0.0789 0.33229,0.33229 -0.25834,0.56864 -1.3125,0.52522 -1.16495,-0.048 -1.4019,-0.28494 -0.60417,-0.60416 z M 398.25,171.28375 c 1.5125,-0.22913 3.9875,-0.22913 5.5,0 1.5125,0.22912 0.275,0.41659 -2.75,0.41659 -3.025,0 -4.2625,-0.18747 -2.75,-0.41659 z"
         id="path14" />
      <path
         style="fill:#bcea13"
         d="m 548.51271,636.60362 c -3.53268,-3.53269 -3.44525,-8.72492 0.19515,-11.58846 2.58552,-2.03377 3.58357,-2.11612 22.09028,-1.82258 18.98907,0.30118 19.42117,0.35533 21.29214,2.6682 2.25233,2.78432 2.49048,7.96175 0.49208,10.69809 -1.30783,1.79076 -2.97238,1.965 -21.48729,2.2493 l -20.06964,0.30817 z m -0.0582,-42.05817 c -1.35,-1.35 -2.45455,-3.12882 -2.45455,-3.95294 0,-2.80983 2.21596,-6.36988 4.65732,-7.48224 C 552.34014,582.34353 568.6772,582 603.45816,582 h 50.36405 l 2.5889,3.07673 c 3.10082,3.68512 3.30957,7.20259 0.58889,9.92327 -1.94876,1.94876 -3.33333,2 -54.04545,2 h -52.04546 z m 35.58441,-39.73401 c -2.77705,-2.98081 -2.64994,-7.88883 0.27549,-10.63713 C 586.6277,542.00109 586.65429,542 637.17955,542 c 49.62658,0 50.59886,0.0379 53.18555,2.07258 1.86824,1.46956 2.6304,2.99706 2.61955,5.25 C 692.94704,557.1343 693.93326,557 636.6047,557 H 586.07791 Z M 549.8811,516.00458 c -0.89038,-0.52645 -2.17701,-2.30465 -2.85918,-3.95156 -1.06759,-2.57739 -0.97361,-3.45105 0.67482,-6.2737 l 1.91513,-3.27932 69.05054,-0.2568 c 68.60828,-0.25516 69.06747,-0.24349 71.69404,1.82258 3.19076,2.50985 3.49268,6.6638 0.73217,10.07344 l -1.91134,2.36078 -68.83866,0.23089 c -42.48609,0.14249 -69.45839,-0.13555 -70.45752,-0.72631 z m 0.48294,-40.17417 C 548.16283,474.76455 546,471.07016 546,468.37602 c 0,-0.84142 1.31538,-2.84525 2.92308,-4.45294 L 551.84615,461 h 50.12659 c 42.75378,0 50.55617,0.22215 53.04728,1.51035 4.17476,2.15885 5.44506,4.95262 3.92287,8.62754 -2.44651,5.90639 -2.07701,5.86859 -56.64323,5.79443 -32.11523,-0.0437 -50.55815,-0.43495 -51.93558,-1.10191 z m 3.39619,-40.73132 c -7.65434,-1.11228 -10.36884,-7.58143 -5.30572,-12.64454 L 550.90909,420 h 50.89623 c 32.90104,0 51.959,0.37048 53.90208,1.04784 3.65593,1.27447 5.77612,4.88954 4.90447,8.36246 -1.33705,5.32723 -1.2876,5.32181 -53.61187,5.8697 -26.675,0.27931 -50.63288,0.1979 -53.23973,-0.18091 z"
         id="path13" />
      <path
         style="fill:#3c83e9"
         d="m 343.32975,696.11921 c 0.72268,-6.9142 6.02337,-21.42854 11.36484,-31.11921 7.56921,-13.73229 18.56009,-32.04754 19.6576,-32.7575 1.07186,-0.69337 2.82076,-3.51341 6.22092,-10.03098 0.77801,-1.49134 1.41734,-4.62402 1.42073,-6.96152 0.006,-4.37091 0.715,-5.14116 2.80616,-3.05 0.66,0.66 1.2,0.81526 1.2,0.34501 0,-0.47024 0.88939,-0.0501 1.97642,0.93365 1.08703,0.98375 1.73351,2.18167 1.43662,2.66205 -0.29689,0.48038 0.16372,1.14338 1.02358,1.47334 0.85986,0.32996 1.56338,0.97922 1.56338,1.44281 0,0.46358 1.28412,2.77794 2.85361,5.14301 4.46543,6.72902 5.60642,12.02359 5.55994,25.80013 -0.0428,12.68375 -2.79919,19.04547 -12.51327,28.88038 -2.73621,2.77025 -5.88194,5.11962 -6.85501,5.11962 -0.51252,0 -1.63238,1.00013 -2.48857,2.22251 -0.85618,1.22237 -1.56359,1.78487 -1.57201,1.25 -0.008,-0.53488 -0.42244,-0.32918 -0.92003,0.45712 -0.4976,0.78629 -1.72004,1.54929 -2.71654,1.69554 -0.9965,0.14626 -1.96998,0.74042 -2.1633,1.32037 C 370.9915,691.52549 370.1528,692 369.32104,692 c -0.83177,0 -2.81927,0.93064 -4.41667,2.06809 -1.5974,1.13746 -2.91126,1.69996 -2.91968,1.25 -0.008,-0.44995 -0.37788,-0.24686 -0.82101,0.45131 -0.44313,0.69816 -3.76546,2.11581 -7.38295,3.15032 -3.61749,1.03451 -7.59262,2.20319 -8.83362,2.59707 -2.21731,0.70374 -2.24531,0.6103 -1.61736,-5.39758 z M 207,635.14155 C 202.91327,632.46784 200.47629,630 201.92273,630 c 0.95164,0 1.12467,-1.00458 0.64592,-3.75 l -0.65392,-3.75 2.6876,4.5 c 1.47819,2.475 3.55622,5.46503 4.61785,6.6445 2.44642,2.71799 1.06734,3.64789 -2.22018,1.49705 z m -7,-38.51911 c 0,-0.20765 0.7875,-0.99515 1.75,-1.75 1.58606,-1.24387 1.62143,-1.2085 0.37756,0.37756 C 200.82119,596.91575 200,597.44548 200,596.62244 Z m 5,-5 c 0,-0.20765 0.7875,-0.99515 1.75,-1.75 1.58606,-1.24387 1.62143,-1.2085 0.37756,0.37756 C 205.82119,591.91575 205,592.44548 205,591.62244 Z m 118,-55.10542 c 0,-1.25825 10.40974,-21.17443 13.7915,-26.38625 5.88125,-9.06391 12.35103,-16.50859 30.9649,-35.63077 18.72994,-19.24142 23.11334,-24.90257 25.82328,-33.35062 l 1.71635,-5.35061 1.36684,3.25075 c 2.10795,5.01334 2.84065,11.40787 2.74432,23.95048 -0.0855,11.12478 -0.75881,17.8816 -2.09279,21 -0.35292,0.825 -0.69231,1.725 -0.75421,2 -0.29317,1.30254 -6.08799,10.5868 -7.01218,11.23469 -0.5764,0.40408 -0.71491,0.74158 -0.3078,0.75 0.8002,0.0165 -1.49962,3.10897 -4.78958,6.44022 -3.45781,3.50121 -10.23404,8.79479 -11.0012,8.59412 -0.3992,-0.10442 -1.09722,0.41108 -1.55115,1.14556 C 371.44435,514.89907 370.59012,515.5 370,515.5 c -0.59012,0 -1.39404,0.45844 -1.78647,1.01876 C 367.21044,517.95094 347.33576,528 345.50631,528 344.67784,528 344,528.43588 344,528.96862 c 0,0.53273 -0.61698,0.73185 -1.37106,0.44248 -0.75408,-0.28936 -2.08801,0.19083 -2.96429,1.0671 -0.87627,0.87628 -1.83429,1.57716 -2.12894,1.55751 -0.29464,-0.0196 -0.64821,-0.002 -0.78571,0.0386 -0.1375,0.0409 -1.35985,0.2779 -2.71634,0.52674 -1.35649,0.24884 -3.49399,1.12577 -4.75,1.94874 -1.25601,0.82298 -2.28366,1.24511 -2.28366,0.93808 0,-0.30703 -0.9,-0.0766 -2,0.51213 -1.1,0.5887 -2,0.82136 -2,0.51702 z m 31.5,-81.46229 c -3.85,-2.11877 -7.3375,-3.6463 -7.75,-3.3945 -0.4125,0.25179 -0.75,-0.0188 -0.75,-0.60121 C 346,450.47656 345.39414,450 344.65364,450 c -5.56815,0 -14.61061,-9.75825 -20.38625,-22 -5.33299,-11.30354 -18.24329,-49.97722 -16.32959,-48.91642 3.52249,1.9526 9.33276,3.86724 10.16843,3.35076 0.49158,-0.3038 0.89377,-0.16471 0.89377,0.3091 0,0.94662 7.92301,4.01237 12.52703,4.84724 1.60097,0.29031 3.3888,0.9245 3.97297,1.40932 0.58417,0.48482 2.32465,1.11042 3.86775,1.39024 1.54309,0.27982 3.37052,0.97758 4.06095,1.55058 0.69042,0.57301 1.55141,0.74573 1.91331,0.38384 0.36189,-0.3619 0.65799,-0.10644 0.65799,0.56769 0,0.67413 0.45,0.94757 1,0.60765 0.55,-0.33992 1,-0.14148 1,0.44098 0,0.58246 0.72691,1.05902 1.61535,1.05902 4.98179,0 25.41614,12.00555 32.84303,19.29588 3.63977,3.57283 3.99082,4.39483 4.36123,10.21204 0.69079,10.8487 -5.37614,20.71856 -18.48599,30.07355 -3.4056,2.43019 -6.33637,4.39762 -6.51281,4.37205 -0.17645,-0.0256 -3.47081,-1.78002 -7.32081,-3.89879 z M 213.42112,316.56876 c 0.40578,-2.16296 0.26758,-4.23892 -0.33012,-4.95911 -0.75541,-0.91022 0.14122,-2.21613 3.38093,-4.92419 2.42494,-2.027 4.6605,-3.68546 4.96791,-3.68546 0.30741,0 -1.01579,3.08995 -2.94045,6.86656 -1.92467,3.7766 -3.49939,7.35005 -3.49939,7.94098 0,0.59093 -0.51228,1.39104 -1.13841,1.778 -0.81711,0.50501 -0.94143,-0.34644 -0.44047,-3.01678 z"
         id="path12" />
      <path
         style="fill:#5077ae"
         d="m 345.5,701.50402 c 3.37512,-1.5906 7.19271,-2.10686 4.5,-0.60856 -0.825,0.45906 -2.85,1.10188 -4.5,1.42851 l -3,0.59385 z M 324.87244,697.25 c -1.24387,-1.58606 -1.2085,-1.62143 0.37756,-0.37756 0.9625,0.75485 1.75,1.54235 1.75,1.75 0,0.82304 -0.82119,0.29331 -2.12756,-1.37244 z m -4,-3 c -1.24387,-1.58606 -1.2085,-1.62143 0.37756,-0.37756 0.9625,0.75485 1.75,1.54235 1.75,1.75 0,0.82304 -0.82119,0.29331 -2.12756,-1.37244 z m 45.86089,-1.37409 c 0.67834,-0.68342 1.48524,-0.99067 1.79313,-0.68278 0.30789,0.30789 -0.24711,0.86705 -1.23333,1.24258 -1.4252,0.54268 -1.54006,0.42782 -0.5598,-0.5598 z M 316.87244,691.25 c -1.24387,-1.58606 -1.2085,-1.62143 0.37756,-0.37756 0.9625,0.75485 1.75,1.54235 1.75,1.75 0,0.82304 -0.82119,0.29331 -2.12756,-1.37244 z M 371,690.60699 c 0,-0.21616 0.69837,-0.661 1.55194,-0.98855 0.88992,-0.34149 1.29132,-0.17385 0.94098,0.39301 C 372.90566,690.96166 371,691.4169 371,690.60699 Z m 8.22619,-5.18571 c 0.94941,-0.99123 1.94144,-1.58698 2.20452,-1.3239 0.26308,0.26308 -0.5137,1.07408 -1.72619,1.80223 -2.10631,1.26492 -2.12762,1.24361 -0.47833,-0.47833 z M 300.25,679.90062 c -2.3375,-1.65561 -4.25,-3.23216 -4.25,-3.50345 0,-0.27129 2.025,0.89999 4.5,2.60283 2.475,1.70284 4.5,3.29946 4.5,3.54804 0,0.68832 -0.18952,0.58269 -4.75,-2.64742 z M 214.29445,641.5572 c -3.35815,-2.44355 -6.45956,-5.03105 -6.89204,-5.75 -0.64573,-1.07347 -0.49972,-1.07502 0.8166,-0.009 0.92873,0.75237 1.84605,0.90518 2.18095,0.36331 0.31791,-0.51439 -0.10843,-1.50496 -0.94742,-2.20126 -1.63768,-1.35915 -7.91264,-12.16107 -8.98126,-15.46061 -0.35625,-1.1 0.67394,0.31 2.28932,3.13332 4.0991,7.16435 6.79809,10.90934 13.05651,18.11668 2.98492,3.4375 5.23721,6.25 5.00509,6.25 -0.23212,0 -3.16961,-1.99926 -6.52775,-4.4428 z m 164.40943,-18.14306 c 2.23561,-3.99995 2.48411,-5.34148 1.94493,-10.5 C 380.30883,609.66136 380.16457,607 380.32824,607 c 0.16367,0 1.61578,1.4625 3.22692,3.25 1.61114,1.7875 2.28033,2.6875 1.48709,2 C 382.65221,610.17855 382,610.79823 382,615.14047 382,619.10222 378.46646,628 376.89314,628 c -0.41379,0 0.40104,-2.06364 1.81074,-4.58586 z m 14.27606,-1.93831 c -0.69572,-0.83829 -1.07128,-1.71782 -0.83459,-1.95452 0.2367,-0.23669 0.97964,0.44918 1.65098,1.52417 1.45181,2.32472 0.96763,2.57996 -0.81639,0.43035 z m -194.90099,-9.05916 c 0.048,-1.16495 0.28494,-1.4019 0.60416,-0.60417 0.28887,0.72187 0.25335,1.58438 -0.0789,1.91667 -0.3323,0.33229 -0.56864,-0.25834 -0.52522,-1.3125 z M 197.25218,606.5 c 0.0111,-2.2 0.21589,-2.98225 0.45508,-1.73834 0.23919,1.24391 0.23011,3.04391 -0.0202,4 -0.25029,0.95609 -0.446,-0.0617 -0.4349,-2.26166 z M 198,601.05902 c 0,-0.51754 0.44485,-1.21592 0.98855,-1.55194 0.56686,-0.35034 0.7345,0.0511 0.39301,0.94098 C 198.71677,602.18048 198,602.49745 198,601.05902 Z m 2,-3.43658 c 0,-0.20765 0.7875,-0.99515 1.75,-1.75 1.58606,-1.24387 1.62143,-1.2085 0.37756,0.37756 C 200.82119,597.91575 200,598.44548 200,597.62244 Z m 35,-25.11646 c 0,-0.67311 10.12224,-5.71707 10.57149,-5.26782 0.20494,0.20494 -2.08981,1.5803 -5.09944,3.05636 C 237.46242,571.77058 235,572.76574 235,572.50598 Z M 330,534 c 0.825,-0.53316 1.95,-0.96937 2.5,-0.96937 0.55,0 0.325,0.43621 -0.5,0.96937 -0.825,0.53316 -1.95,0.96937 -2.5,0.96937 -0.55,0 -0.325,-0.43621 0.5,-0.96937 z m 10,-4 c 0.825,-0.53316 1.95,-0.96937 2.5,-0.96937 0.55,0 0.325,0.43621 -0.5,0.96937 -0.825,0.53316 -1.95,0.96937 -2.5,0.96937 -0.55,0 -0.325,-0.43621 0.5,-0.96937 z m 53,-38 c 0.5887,-1.1 1.29537,-2 1.57037,-2 0.275,0 0.0183,0.9 -0.57037,2 -0.5887,1.1 -1.29537,2 -1.57037,2 -0.275,0 -0.0183,-0.9 0.57037,-2 z M 324.5,385.46481 c -2.50062,-1.20445 -2.58385,-1.34326 -0.5,-0.83393 2.8335,0.69256 6.0185,2.31592 4.5,2.29361 -0.55,-0.008 -2.35,-0.66494 -4,-1.45968 z M 315,382 c -0.825,-0.53316 -1.05,-0.96937 -0.5,-0.96937 0.55,0 1.675,0.43621 2.5,0.96937 0.825,0.53316 1.05,0.96937 0.5,0.96937 -0.55,0 -1.675,-0.43621 -2.5,-0.96937 z m -5.75,-2.03116 c -3.34865,-1.34599 -2.72266,-2.02957 0.75,-0.819 1.65,0.5752 3,1.22679 3,1.44799 0,0.59324 -1.21714,0.38909 -3.75,-0.62899 z M 221.95821,334.25 217.5,329.5 l 4.56081,4.27253 c 2.50844,2.34989 4.87094,3.96239 5.25,3.58333 0.37905,-0.37906 0.68919,-0.16419 0.68919,0.47747 0,2.12812 -1.53651,1.21683 -6.04179,-3.58333 z m -6.00405,-7.33565 c -0.61391,-1.1471 -0.92784,-2.274 -0.69762,-2.50422 0.23022,-0.23022 0.93203,0.70832 1.55958,2.08564 1.37807,3.02454 0.70709,3.35038 -0.86196,0.41858 z m -1.60748,-6.89775 c 0.36238,-1.81192 2.23235,-6.38189 4.15549,-10.1555 1.92313,-3.7736 3.184,-6.8611 2.80194,-6.8611 -0.38207,0 -1.9568,1.20919 -3.49939,2.68709 -1.5426,1.4779 -2.80472,2.24423 -2.80472,1.70295 0,-0.93427 3.31146,-4.24564 10.90466,-10.90438 1.87257,-1.64211 3.13355,-2.50413 2.80219,-1.91559 -0.33137,0.58854 -0.80204,2.17056 -1.04594,3.5156 -0.2439,1.34503 -2.22711,5.1385 -4.40714,8.42992 -4.8677,7.34932 -7.25377,11.91362 -7.25377,13.87573 0,0.81986 -0.52024,1.81217 -1.1561,2.20515 -0.83094,0.51356 -0.97079,-0.21204 -0.49722,-2.57987 z"
         id="path11" />
      <path
         style="fill:#727374"
         d="m 363.87244,832.25 c -1.24387,-1.58606 -1.2085,-1.62143 0.37756,-0.37756 0.9625,0.75485 1.75,1.54235 1.75,1.75 0,0.82304 -0.82119,0.29331 -2.12756,-1.37244 z m -14.89219,-14 -9.48025,-9.75 9.75,9.48025 C 358.3057,826.78541 359.45489,828 358.73025,828 c -0.14836,0 -4.53586,-4.3875 -9.75,-9.75 z m -16.57526,-17.5 -1.90499,-2.25 2.25,1.90499 c 2.11444,1.79022 2.70524,2.59501 1.90499,2.59501 -0.18976,0 -1.20226,-1.0125 -2.25,-2.25 z m 80.46745,-23.5 c -1.24387,-1.58606 -1.2085,-1.62143 0.37756,-0.37756 1.66575,1.30637 2.19548,2.12756 1.37244,2.12756 -0.20765,0 -0.99515,-0.7875 -1.75,-1.75 z m -17.9066,-20 -5.46584,-5.75 5.75,5.46584 c 3.1625,3.00621 5.75,5.59371 5.75,5.75 0,0.74225 -0.95622,-0.12391 -6.03416,-5.46584 z m -12,-12 -5.46584,-5.75 5.75,5.46584 c 5.34193,5.07794 6.20809,6.03416 5.46584,6.03416 -0.15629,0 -2.74379,-2.5875 -5.75,-5.75 z m -12.56085,-11.5 -1.90499,-2.25 2.25,1.90499 c 1.2375,1.04774 2.25,2.06024 2.25,2.25 0,0.80025 -0.80479,0.20945 -2.59501,-1.90499 z m -6.53255,-5.5 c -1.24387,-1.58606 -1.2085,-1.62143 0.37756,-0.37756 1.66575,1.30637 2.19548,2.12756 1.37244,2.12756 -0.20765,0 -0.99515,-0.7875 -1.75,-1.75 z m -12,-10 c -1.24387,-1.58606 -1.2085,-1.62143 0.37756,-0.37756 0.9625,0.75485 1.75,1.54235 1.75,1.75 0,0.82304 -0.82119,0.29331 -2.12756,-1.37244 z m -4,-3 c -1.24387,-1.58606 -1.2085,-1.62143 0.37756,-0.37756 0.9625,0.75485 1.75,1.54235 1.75,1.75 0,0.82304 -0.82119,0.29331 -2.12756,-1.37244 z m -68.79349,-4.83333 c 0.048,-1.16495 0.28494,-1.4019 0.60416,-0.60417 0.28887,0.72187 0.25335,1.58438 -0.0789,1.91667 -0.33229,0.33229 -0.56864,-0.25834 -0.52522,-1.3125 z M 278.28601,700.5 c 0.008,-2.75 0.20172,-3.75631 0.43157,-2.23625 0.22986,1.52006 0.22371,3.77006 -0.0136,5 -0.23736,1.22994 -0.42542,-0.0137 -0.41792,-2.76375 z m 0.4452,-11.41984 c -0.43497,-1.66335 -0.30483,-2.05378 0.43724,-1.31171 0.5811,0.5811 0.85979,1.64682 0.61931,2.36826 -0.24965,0.74895 -0.70294,0.29565 -1.05655,-1.05655 z M 586.75,682.2766 c 1.7875,-0.22182 4.7125,-0.22182 6.5,0 1.7875,0.22183 0.325,0.40333 -3.25,0.40333 -3.575,0 -5.0375,-0.1815 -3.25,-0.40333 z m 23,0.0177 c 1.2375,-0.23836 3.2625,-0.23836 4.5,0 1.2375,0.23835 0.225,0.43337 -2.25,0.43337 -2.475,0 -3.4875,-0.19502 -2.25,-0.43337 z m -38,-0.95655 c 0.6875,-0.27741 1.8125,-0.27741 2.5,0 0.6875,0.27741 0.125,0.50439 -1.25,0.50439 -1.375,0 -1.9375,-0.22698 -1.25,-0.50439 z m 54,0 c 0.6875,-0.27741 1.8125,-0.27741 2.5,0 0.6875,0.27741 0.125,0.50439 -1.25,0.50439 -1.375,0 -1.9375,-0.22698 -1.25,-0.50439 z m -63,-1 c 0.6875,-0.27741 1.8125,-0.27741 2.5,0 0.6875,0.27741 0.125,0.50439 -1.25,0.50439 -1.375,0 -1.9375,-0.22698 -1.25,-0.50439 z m -7.9375,-1.02083 c 0.72187,-0.28887 1.58438,-0.25335 1.91667,0.0789 0.33229,0.33229 -0.25834,0.56864 -1.3125,0.52522 -1.16495,-0.048 -1.4019,-0.28494 -0.60417,-0.60416 z M 290.87244,673.25 c -1.24387,-1.58606 -1.2085,-1.62143 0.37756,-0.37756 0.9625,0.75485 1.75,1.54235 1.75,1.75 0,0.82304 -0.82119,0.29331 -2.12756,-1.37244 z m -4,-3 c -1.24387,-1.58606 -1.2085,-1.62143 0.37756,-0.37756 0.9625,0.75485 1.75,1.54235 1.75,1.75 0,0.82304 -0.82119,0.29331 -2.12756,-1.37244 z m -19,-13 c -1.24387,-1.58606 -1.2085,-1.62143 0.37756,-0.37756 0.9625,0.75485 1.75,1.54235 1.75,1.75 0,0.82304 -0.82119,0.29331 -2.12756,-1.37244 z m -44.46745,-9.5 -1.90499,-2.25 2.25,1.90499 c 1.2375,1.04774 2.25,2.06024 2.25,2.25 0,0.80025 -0.80479,0.20945 -2.59501,-1.90499 z m 252.7529,0.25 c 0,-1.375 0.22698,-1.9375 0.50439,-1.25 0.27741,0.6875 0.27741,1.8125 0,2.5 -0.27741,0.6875 -0.50439,0.125 -0.50439,-1.25 z m -225.28545,-2.75 c -1.24387,-1.58606 -1.2085,-1.62143 0.37756,-0.37756 0.9625,0.75485 1.75,1.54235 1.75,1.75 0,0.82304 -0.82119,0.29331 -2.12756,-1.37244 z M 478,642.62244 c 0,-0.20765 0.7875,-0.99515 1.75,-1.75 1.58606,-1.24387 1.62143,-1.2085 0.37756,0.37756 C 478.82119,642.91575 478,643.44548 478,642.62244 Z m 4.8125,-3.30555 c 0.72187,-0.28887 1.58438,-0.25335 1.91667,0.0789 0.33229,0.33229 -0.25834,0.56864 -1.3125,0.52522 -1.16495,-0.048 -1.4019,-0.28494 -0.60417,-0.60416 z M 547.87244,637.25 c -1.26951,-1.61876 -1.22245,-1.63998 0.62756,-0.28297 1.1,0.80687 2.1875,1.59437 2.41667,1.75 0.22916,0.15563 -0.0532,0.28297 -0.62756,0.28297 -0.57432,0 -1.66182,-0.7875 -2.41667,-1.75 z m 117.68426,-1.47251 c -2.14806,-3.06678 -1.94745,-7.01102 0.51588,-10.14263 1.85214,-2.35461 2.75121,-2.63486 8.45295,-2.63486 7.44511,0 10.82169,1.27188 12.3642,4.65732 1.56125,3.42659 1.40201,4.70207 -0.96231,7.70782 -1.94413,2.47157 -2.59135,2.63486 -10.4433,2.63486 -7.51644,0 -8.52958,-0.22682 -9.92742,-2.22251 z M 236.43709,633.75 233.5,630.5 l 3.25,2.93709 c 3.02946,2.73778 3.70965,3.56291 2.93709,3.56291 -0.1721,0 -1.6346,-1.4625 -3.25,-3.25 z M 748,636.62244 c 0,-0.20765 0.7875,-0.99515 1.75,-1.75 1.58606,-1.24387 1.62143,-1.2085 0.37756,0.37756 C 748.82119,636.91575 748,637.44548 748,636.62244 Z M 594.19495,631.5 c 0.0204,-1.65 0.2445,-2.20394 0.49804,-1.23097 0.25354,0.97297 0.23687,2.32297 -0.0371,3 -0.27393,0.67703 -0.48137,-0.11903 -0.46099,-1.76903 z M 545.15789,631 c 0,-1.375 0.22698,-1.9375 0.50439,-1.25 0.27741,0.6875 0.27741,1.8125 0,2.5 -0.27741,0.6875 -0.50439,0.125 -0.50439,-1.25 z m -318.7529,-7.25 -1.90499,-2.25 2.25,1.90499 c 2.11444,1.79022 2.70524,2.59501 1.90499,2.59501 -0.18976,0 -1.20226,-1.0125 -2.25,-2.25 z m 146.46745,0.5 c -1.24387,-1.58606 -1.2085,-1.62143 0.37756,-0.37756 1.66575,1.30637 2.19548,2.12756 1.37244,2.12756 -0.20765,0 -0.99515,-0.7875 -1.75,-1.75 z M 764,624.62244 c 0,-0.20765 0.7875,-0.99515 1.75,-1.75 1.58606,-1.24387 1.62143,-1.2085 0.37756,0.37756 C 764.82119,624.91575 764,625.44548 764,624.62244 Z M 777.5,612 c 3.26557,-3.3 6.16239,-6 6.43739,-6 0.275,0 -2.17182,2.7 -5.43739,6 -3.26557,3.3 -6.16239,6 -6.43739,6 -0.275,0 2.17182,-2.7 5.43739,-6 z m -401.62756,-7.75 c -1.24387,-1.58606 -1.2085,-1.62143 0.37756,-0.37756 1.66575,1.30637 2.19548,2.12756 1.37244,2.12756 -0.20765,0 -0.99515,-0.7875 -1.75,-1.75 z M 789,599.5 c 1.29175,-1.375 2.57363,-2.5 2.84863,-2.5 0.275,0 -0.55688,1.125 -1.84863,2.5 -1.29175,1.375 -2.57363,2.5 -2.84863,2.5 -0.275,0 0.55688,-1.125 1.84863,-2.5 z m 9,-10.87756 c 0,-0.20765 0.7875,-0.99515 1.75,-1.75 1.58606,-1.24387 1.62143,-1.2085 0.37756,0.37756 C 798.82119,588.91575 798,589.44548 798,588.62244 Z M 655.87244,584.25 c -1.24387,-1.58606 -1.2085,-1.62143 0.37756,-0.37756 0.9625,0.75485 1.75,1.54235 1.75,1.75 0,0.82304 -0.82119,0.29331 -2.12756,-1.37244 z M 724.48072,486 c 0,-54.175 0.12108,-76.3375 0.26906,-49.25 0.14799,27.0875 0.14799,71.4125 0,98.5 -0.14798,27.0875 -0.26906,4.925 -0.26906,-49.25 z m -143.28577,63.5 c 0.0204,-1.65 0.2445,-2.20394 0.49804,-1.23097 0.25354,0.97297 0.23687,2.32297 -0.0371,3 -0.27393,0.67703 -0.48137,-0.11903 -0.46099,-1.76903 z m 112,0 c 0.0204,-1.65 0.2445,-2.20394 0.49804,-1.23097 0.25354,0.97297 0.23687,2.32297 -0.0371,3 -0.27393,0.67703 -0.48137,-0.11903 -0.46099,-1.76903 z M 583.5,544 c 0.99549,-1.1 2.03498,-2 2.30998,-2 0.275,0 -0.31449,0.9 -1.30998,2 -0.99549,1.1 -2.03498,2 -2.30998,2 -0.275,0 0.31449,-0.9 1.30998,-2 z m 107.37244,0.25 c -1.24387,-1.58606 -1.2085,-1.62143 0.37756,-0.37756 0.9625,0.75485 1.75,1.54235 1.75,1.75 0,0.82304 -0.82119,0.29331 -2.12756,-1.37244 z M 603.75,541.25179 c 8.9375,-0.16573 23.5625,-0.16573 32.5,0 8.9375,0.16574 1.625,0.30134 -16.25,0.30134 -17.875,0 -25.1875,-0.1356 -16.25,-0.30134 z m 72.9777,0.0265 c 1.77523,-0.22091 4.92523,-0.22454 7,-0.008 2.07476,0.21648 0.6223,0.39722 -3.2277,0.40166 -3.85,0.004 -5.54754,-0.17268 -3.7723,-0.39359 z m 14.37269,-26.98279 c 0.72815,-1.21249 1.53915,-1.98927 1.80223,-1.72619 0.26308,0.26308 -0.33267,1.25511 -1.3239,2.20452 -1.72194,1.64929 -1.74325,1.62798 -0.47833,-0.47833 z m 1.97856,-4.87881 c 0.048,-1.16495 0.28494,-1.4019 0.60416,-0.60417 0.28887,0.72187 0.25335,1.58438 -0.0789,1.91667 -0.33229,0.33229 -0.56864,-0.25834 -0.52522,-1.3125 z M 546,507.05902 c 0,-0.51754 0.44485,-1.21592 0.98855,-1.55194 0.56686,-0.35034 0.7345,0.0511 0.39301,0.94098 C 546.71677,508.18048 546,508.49745 546,507.05902 Z m 38.75,-5.80858 c 18.8375,-0.15218 49.6625,-0.15218 68.5,0 18.8375,0.15218 3.425,0.2767 -34.25,0.2767 -37.675,0 -53.0875,-0.12452 -34.25,-0.2767 z M 775.15789,497 c 0,-1.375 0.22698,-1.9375 0.50439,-1.25 0.27741,0.6875 0.27741,1.8125 0,2.5 -0.27741,0.6875 -0.50439,0.125 -0.50439,-1.25 z m 1.03706,-10.5 c 0.0204,-1.65 0.2445,-2.20394 0.49804,-1.23097 0.25354,0.97297 0.23687,2.32297 -0.0371,3 -0.27393,0.67703 -0.48137,-0.11903 -0.46099,-1.76903 z M 547,464.62244 c 0,-0.20765 0.7875,-0.99515 1.75,-1.75 1.58606,-1.24387 1.62143,-1.2085 0.37756,0.37756 C 547.82119,464.91575 547,465.44548 547,464.62244 Z m 303.07895,-7.20577 c 0.048,-1.16495 0.28494,-1.4019 0.60416,-0.60417 0.28887,0.72187 0.25335,1.58438 -0.0789,1.91667 -0.33229,0.33229 -0.56864,-0.25834 -0.52522,-1.3125 z M 776.19495,451.5 c 0.0204,-1.65 0.2445,-2.20394 0.49804,-1.23097 0.25354,0.97297 0.23687,2.32297 -0.0371,3 -0.27393,0.67703 -0.48137,-0.11903 -0.46099,-1.76903 z m 74.96294,-2.5 c 0,-1.375 0.22698,-1.9375 0.50439,-1.25 0.27741,0.6875 0.27741,1.8125 0,2.5 -0.27741,0.6875 -0.50439,0.125 -0.50439,-1.25 z m -76.07894,-8.58333 c 0.048,-1.16495 0.28494,-1.4019 0.60416,-0.60417 0.28887,0.72187 0.25335,1.58438 -0.0789,1.91667 -0.33229,0.33229 -0.56864,-0.25834 -0.52522,-1.3125 z m -222.31729,-5.12393 c 1.24391,-0.23919 3.04391,-0.23011 4,0.0202 0.95609,0.25029 -0.0617,0.446 -2.26166,0.4349 -2.2,-0.0111 -2.98225,-0.21589 -1.73834,-0.45508 z m 58.54951,-0.0409 c 8.14615,-0.16828 21.19615,-0.16789 29,8.6e-4 7.80386,0.16876 1.13883,0.30644 -14.81117,0.30596 -15.95,-4.7e-4 -22.33497,-0.13854 -14.18883,-0.30682 z m 162.76778,-2.83512 c 0.048,-1.16495 0.28494,-1.4019 0.60416,-0.60417 0.28887,0.72187 0.25335,1.58438 -0.0789,1.91667 -0.33229,0.33229 -0.56864,-0.25834 -0.52522,-1.3125 z M 852.232,427 c 0,-1.925 0.2058,-2.7125 0.45733,-1.75 0.25152,0.9625 0.25152,2.5375 0,3.5 -0.25153,0.9625 -0.45733,0.175 -0.45733,-1.75 z m -1.07411,-25 c 0,-1.375 0.22698,-1.9375 0.50439,-1.25 0.27741,0.6875 0.27741,1.8125 0,2.5 -0.27741,0.6875 -0.50439,0.125 -0.50439,-1.25 z m -1,-9 c 0,-1.375 0.22698,-1.9375 0.50439,-1.25 0.27741,0.6875 0.27741,1.8125 0,2.5 -0.27741,0.6875 -0.50439,0.125 -0.50439,-1.25 z M 387.8125,390.31689 c 0.72187,-0.28887 1.58438,-0.25335 1.91667,0.0789 0.33229,0.33229 -0.25834,0.56864 -1.3125,0.52522 -1.16495,-0.048 -1.4019,-0.28494 -0.60417,-0.60416 z m 22,0 c 0.72187,-0.28887 1.58438,-0.25335 1.91667,0.0789 0.33229,0.33229 -0.25834,0.56864 -1.3125,0.52522 -1.16495,-0.048 -1.4019,-0.28494 -0.60417,-0.60416 z m 439.26645,-4.90022 c 0.048,-1.16495 0.28494,-1.4019 0.60416,-0.60417 0.28887,0.72187 0.25335,1.58438 -0.0789,1.91667 -0.33229,0.33229 -0.56864,-0.25834 -0.52522,-1.3125 z m -280.26645,-0.0998 c 0.72187,-0.28887 1.58438,-0.25335 1.91667,0.0789 0.33229,0.33229 -0.25834,0.56864 -1.3125,0.52522 -1.16495,-0.048 -1.4019,-0.28494 -0.60417,-0.60416 z m 64.45653,-0.01 c 0.97297,-0.25354 2.32297,-0.23687 3,0.0371 0.67703,0.27393 -0.11903,0.48137 -1.76903,0.46099 -1.65,-0.0204 -2.20394,-0.2445 -1.23097,-0.49804 z m 21.48097,0.0307 c 0.6875,-0.27741 1.8125,-0.27741 2.5,0 0.6875,0.27741 0.125,0.50439 -1.25,0.50439 -1.375,0 -1.9375,-0.22698 -1.25,-0.50439 z m -134,-1.07496 c 2.8875,-0.202 7.6125,-0.202 10.5,0 2.8875,0.202 0.525,0.36728 -5.25,0.36728 -5.775,0 -8.1375,-0.16528 -5.25,-0.36728 z m 103.0625,0.0541 c 0.72187,-0.28887 1.58438,-0.25335 1.91667,0.0789 0.33229,0.33229 -0.25834,0.56864 -1.3125,0.52522 -1.16495,-0.048 -1.4019,-0.28494 -0.60417,-0.60416 z m -20,-1 c 0.72187,-0.28887 1.58438,-0.25335 1.91667,0.0789 0.33229,0.33229 -0.25834,0.56864 -1.3125,0.52522 -1.16495,-0.048 -1.4019,-0.28494 -0.60417,-0.60416 z M 735,380.62244 c 0,-0.20765 0.7875,-0.99515 1.75,-1.75 1.58606,-1.24387 1.62143,-1.2085 0.37756,0.37756 C 735.82119,380.91575 735,381.44548 735,380.62244 Z m -264,-3.20146 c -7.6833,-1.35906 -14,-2.73981 -14,-3.06023 0,-0.20127 1.84117,-2.02934 4.09149,-4.06237 11.49782,-10.38759 22.40857,-32.51018 27.51947,-55.79838 0.72423,-3.3 1.87851,-12.8625 2.56507,-21.25 L 492.42431,278 H 505.71216 519 v 7.40063 c 0,16.1732 -5.51119,38.51718 -13.58358,55.07182 -3.74213,7.67425 -13.07699,18.70088 -19.35609,22.86401 -1.34181,0.88965 -2.1546,1.90261 -1.80618,2.25103 1.08329,1.08328 12.35603,-8.46614 17.02239,-14.4201 C 514.37513,334.45449 521,313.872 521,289.88953 V 278 h 13.43873 13.43872 l 0.6984,4.65721 c 2.19266,14.62176 -3.09378,41.56082 -11.52803,58.74536 -11.56376,23.56083 -28.24421,34.9738 -52.61554,36.0002 C 478.41952,377.656 472.375,377.6642 471,377.42098 Z m 57.15696,-1.12352 -9.34305,-0.37497 4.47817,-3.41934 c 6.36636,-4.86107 16.05367,-17.29917 20.22036,-25.96209 8.29429,-17.24453 11.5734,-32.29878 11.82473,-54.28682 l 0.16283,-14.24575 11.63342,-0.004 11.63343,-0.004 0.60214,2.75 c 0.33118,1.5125 0.88237,9.5 1.22487,17.75 0.53882,12.97889 0.33596,16.41477 -1.50559,25.5 -3.08728,15.23099 -8.28474,25.34851 -17.89495,34.83478 -7.64342,7.54483 -7.24287,8.38559 0.7262,1.52432 6.55111,-5.64042 15.38249,-18.13078 19.05219,-26.9458 6.09984,-14.65245 9.98475,-35.14167 9.60617,-50.6633 L 590.46202,278 H 605.23101 620 v 6.40063 c 0,3.52034 -0.87744,11.50784 -1.94987,17.75 -5.80497,33.78835 -17.00934,53.72065 -37.50339,66.71759 -6.3736,4.04202 -4.68577,4.0411 2.45326,-0.001 3.025,-1.71289 9.55,-7.23457 14.5,-12.27039 16.58544,-16.87298 24.23683,-36.22978 25.23737,-63.8465 L 623.27175,278 H 636.13588 649 v 12.88953 c 0,41.23742 -18.42594,73.90436 -47,83.32528 -5.98695,1.9739 -8.789,2.15547 -35.5,2.30034 -15.95,0.0865 -33.20437,-0.0115 -38.34304,-0.21769 z M 629,376.35242 c -7.76638,-0.71886 -7.78566,-0.93082 -0.71803,-7.89494 C 647.37261,349.6464 657,322.65678 657,287.94878 V 278 h 12.93873 12.93872 l 0.5257,4.25 c 1.46881,11.87467 1.57197,16.05161 0.62058,25.12821 -2.20707,21.0562 -8.32981,35.43681 -20.73631,48.70385 -5.21016,5.57155 -6.51967,7.37278 -3.9568,5.44258 6.54554,-4.92972 14.28906,-14.47529 19.01031,-23.43433 7.41645,-14.07344 12.64642,-35.7042 12.65505,-52.34031 L 691,278 l 14.25,-10e-4 14.25,-0.001 -0.32271,12.25136 c -0.54543,20.70699 -5.83318,41.21986 -14.26043,55.32081 -7.60303,12.7218 -21.90352,23.90346 -36.41686,28.47462 -5.56334,1.75224 -9.87332,2.25811 -21,2.4648 -7.7,0.14304 -16.025,0.0726 -18.5,-0.15645 z m 218.07895,-1.93575 c 0.048,-1.16495 0.28494,-1.4019 0.60416,-0.60417 0.28887,0.72187 0.25335,1.58438 -0.0789,1.91667 -0.33229,0.33229 -0.56864,-0.25834 -0.52522,-1.3125 z M 340.46241,365.75 335.5,360.5 l 5.25,4.96241 c 2.8875,2.72932 5.25,5.09182 5.25,5.25 0,0.74619 -0.92643,-0.084 -5.53759,-4.96241 z M 746,369.62244 c 0,-0.20765 0.7875,-0.99515 1.75,-1.75 1.58606,-1.24387 1.62143,-1.2085 0.37756,0.37756 C 746.82119,369.91575 746,370.44548 746,369.62244 Z m -290,-5 c 0,-0.20765 0.7875,-0.99515 1.75,-1.75 1.58606,-1.24387 1.62143,-1.2085 0.37756,0.37756 C 456.82119,364.91575 456,365.44548 456,364.62244 Z M 726,361.5 c 1.29175,-1.375 2.57363,-2.5 2.84863,-2.5 0.275,0 -0.55688,1.125 -1.84863,2.5 -1.29175,1.375 -2.57363,2.5 -2.84863,2.5 -0.275,0 0.55688,-1.125 1.84863,-2.5 z M 352.5,340 c -0.99549,-1.1 -1.30606,-2 -0.69017,-2 0.61589,0 1.60147,0.9 2.19017,2 0.5887,1.1 0.89928,2 0.69017,2 -0.20911,0 -1.19468,-0.9 -2.19017,-2 z m 40.3125,-3.68311 c 0.72187,-0.28887 1.58438,-0.25335 1.91667,0.0789 0.33229,0.33229 -0.25834,0.56864 -1.3125,0.52522 -1.16495,-0.048 -1.4019,-0.28494 -0.60417,-0.60416 z m 7.9375,0.0208 c 0.6875,-0.27741 1.8125,-0.27741 2.5,0 0.6875,0.27741 0.125,0.50439 -1.25,0.50439 -1.375,0 -1.9375,-0.22698 -1.25,-0.50439 z m -17.24292,-2.32627 c -0.35034,-0.56686 0.0511,-0.7345 0.94098,-0.39301 1.73242,0.66479 2.04939,1.38156 0.61096,1.38156 -0.51754,0 -1.21592,-0.44485 -1.55194,-0.98855 z M 371.94617,325.25 368.5,321.5 l 3.75,3.44617 c 2.0625,1.89539 3.75,3.58289 3.75,3.75 0,0.76362 -0.84622,0.0442 -4.05383,-3.44617 z M 423,325.5 c 1.86578,-1.925 3.61733,-3.5 3.89233,-3.5 0.275,0 -1.02655,1.575 -2.89233,3.5 -1.86578,1.925 -3.61733,3.5 -3.89233,3.5 -0.275,0 1.02655,-1.575 2.89233,-3.5 z M 310.07895,307.41667 c 0.048,-1.16495 0.28494,-1.4019 0.60416,-0.60417 0.28887,0.72187 0.25335,1.58438 -0.0789,1.91667 -0.33229,0.33229 -0.56864,-0.25834 -0.52522,-1.3125 z m 171,0 c 0.048,-1.16495 0.28494,-1.4019 0.60416,-0.60417 0.28887,0.72187 0.25335,1.58438 -0.0789,1.91667 -0.33229,0.33229 -0.56864,-0.25834 -0.52522,-1.3125 z m -172,-6 c 0.048,-1.16495 0.28494,-1.4019 0.60416,-0.60417 0.28887,0.72187 0.25335,1.58438 -0.0789,1.91667 -0.33229,0.33229 -0.56864,-0.25834 -0.52522,-1.3125 z M 482.15789,300 c 0,-1.375 0.22698,-1.9375 0.50439,-1.25 0.27741,0.6875 0.27741,1.8125 0,2.5 -0.27741,0.6875 -0.50439,0.125 -0.50439,-1.25 z m 268.20734,-12.5 c 0.003,-5.5 0.17053,-7.62242 0.37317,-4.71648 0.20265,2.90594 0.20052,7.40594 -0.005,10 C 750.52842,295.37758 750.36263,293 750.36523,287.5 Z M 308.232,293 c 0,-1.925 0.2058,-2.7125 0.45733,-1.75 0.25152,0.9625 0.25152,2.5375 0,3.5 -0.25153,0.9625 -0.45733,0.175 -0.45733,-1.75 z m 22.84695,-0.58333 c 0.048,-1.16495 0.28494,-1.4019 0.60416,-0.60417 0.28887,0.72187 0.25335,1.58438 -0.0789,1.91667 -0.33229,0.33229 -0.56864,-0.25834 -0.52522,-1.3125 z M 336.25218,288.5 c 0.0111,-2.2 0.21589,-2.98225 0.45508,-1.73834 0.23919,1.24391 0.23011,3.04391 -0.0202,4 -0.25029,0.95609 -0.446,-0.0617 -0.4349,-2.26166 z m 102.82677,0.91667 c 0.048,-1.16495 0.28494,-1.4019 0.60416,-0.60417 0.28887,0.72187 0.25335,1.58438 -0.0789,1.91667 -0.33229,0.33229 -0.56864,-0.25834 -0.52522,-1.3125 z M 483.36996,281 c 0,-5.775 0.16528,-8.1375 0.36728,-5.25 0.202,2.8875 0.202,7.6125 0,10.5 -0.202,2.8875 -0.36728,0.525 -0.36728,-5.25 z m -185.55746,1.31689 c 0.72187,-0.28887 1.58438,-0.25335 1.91667,0.0789 0.33229,0.33229 -0.25834,0.56864 -1.3125,0.52522 -1.16495,-0.048 -1.4019,-0.28494 -0.60417,-0.60416 z M 336.232,275 c 0,-1.925 0.2058,-2.7125 0.45733,-1.75 0.25152,0.9625 0.25152,2.5375 0,3.5 -0.25153,0.9625 -0.45733,0.175 -0.45733,-1.75 z m 102.84695,-1.58333 c 0.048,-1.16495 0.28494,-1.4019 0.60416,-0.60417 0.28887,0.72187 0.25335,1.58438 -0.0789,1.91667 -0.33229,0.33229 -0.56864,-0.25834 -0.52522,-1.3125 z m -82,-1 c 0.048,-1.16495 0.28494,-1.4019 0.60416,-0.60417 0.28887,0.72187 0.25335,1.58438 -0.0789,1.91667 -0.33229,0.33229 -0.56864,-0.25834 -0.52522,-1.3125 z M 264,272.60699 c 0,-0.21616 0.69837,-0.661 1.55194,-0.98855 0.88992,-0.34149 1.29132,-0.17385 0.94098,0.39301 C 265.90566,272.96166 264,273.4169 264,272.60699 Z m 485.07895,-5.19032 c 0.048,-1.16495 0.28494,-1.4019 0.60416,-0.60417 0.28887,0.72187 0.25335,1.58438 -0.0789,1.91667 -0.33229,0.33229 -0.56864,-0.25834 -0.52522,-1.3125 z m -267,-6 c 0.048,-1.16495 0.28494,-1.4019 0.60416,-0.60417 0.28887,0.72187 0.25335,1.58438 -0.0789,1.91667 -0.33229,0.33229 -0.56864,-0.25834 -0.52522,-1.3125 z m -8.5259,-12.06131 c -0.36646,-1.4601 -0.19106,-3.11735 0.39159,-3.7 0.74048,-0.74048 1.05536,0.0486 1.05536,2.64464 0,4.35507 -0.52303,4.73655 -1.44695,1.05536 z M 472.03063,244.5 c 0,-0.55 0.43621,-1.675 0.96937,-2.5 0.53316,-0.825 0.96937,-1.05 0.96937,-0.5 0,0.55 -0.43621,1.675 -0.96937,2.5 -0.53316,0.825 -0.96937,1.05 -0.96937,0.5 z m -48.10632,-4.25 -2.42431,-2.75 2.75,2.42431 c 2.57029,2.26589 3.20859,3.07569 2.42431,3.07569 -0.17912,0 -1.41662,-1.2375 -2.75,-2.75 z m 359.94813,-2 c -1.24387,-1.58606 -1.2085,-1.62143 0.37756,-0.37756 1.66575,1.30637 2.19548,2.12756 1.37244,2.12756 -0.20765,0 -0.99515,-0.7875 -1.75,-1.75 z M 375,238.62244 c 0,-0.20765 0.7875,-0.99515 1.75,-1.75 1.58606,-1.24387 1.62143,-1.2085 0.37756,0.37756 C 375.82119,238.91575 375,239.44548 375,238.62244 Z M 775.92431,229.25 773.5,226.5 l 2.75,2.42431 c 1.5125,1.33338 2.75,2.57088 2.75,2.75 0,0.78428 -0.8098,0.14598 -3.07569,-2.42431 z m -383.11181,0.0669 c 0.72187,-0.28887 1.58438,-0.25335 1.91667,0.0789 0.33229,0.33229 -0.25834,0.56864 -1.3125,0.52522 -1.16495,-0.048 -1.4019,-0.28494 -0.60417,-0.60416 z M 769.87244,223.25 c -1.24387,-1.58606 -1.2085,-1.62143 0.37756,-0.37756 1.66575,1.30637 2.19548,2.12756 1.37244,2.12756 -0.20765,0 -0.99515,-0.7875 -1.75,-1.75 z m -6.43535,-6.5 -2.93709,-3.25 3.25,2.93709 c 1.7875,1.6154 3.25,3.0779 3.25,3.25 0,0.77256 -0.82513,0.0924 -3.56291,-2.93709 z m -399.13133,-2.2816 c 1.54317,-1.35762 3.34317,-2.45643 4,-2.44179 0.65683,0.0146 -0.0433,0.79386 -1.55576,1.73162 -1.5125,0.93775 -2.75,2.05078 -2.75,2.47339 0,0.42261 -0.5625,0.75416 -1.25,0.73678 -0.6875,-0.0174 0.0126,-1.14238 1.55576,-2.5 z M 755.40499,209.75 753.5,207.5 l 2.25,1.90499 c 1.2375,1.04774 2.25,2.06024 2.25,2.25 0,0.80025 -0.80479,0.20945 -2.59501,-1.90499 z m -36.53255,-4.5 c -1.24387,-1.58606 -1.2085,-1.62143 0.37756,-0.37756 1.66575,1.30637 2.19548,2.12756 1.37244,2.12756 -0.20765,0 -0.99515,-0.7875 -1.75,-1.75 z M 338,202.5 c 1.29175,-1.375 2.57363,-2.5 2.84863,-2.5 0.275,0 -0.55688,1.125 -1.84863,2.5 -1.29175,1.375 -2.57363,2.5 -2.84863,2.5 -0.275,0 0.55688,-1.125 1.84863,-2.5 z m 109.40499,-1.75 -1.90499,-2.25 2.25,1.90499 c 1.2375,1.04774 2.25,2.06024 2.25,2.25 0,0.80025 -0.80479,0.20945 -2.59501,-1.90499 z m 5.46745,-0.5 c -1.24387,-1.58606 -1.2085,-1.62143 0.37756,-0.37756 1.66575,1.30637 2.19548,2.12756 1.37244,2.12756 -0.20765,0 -0.99515,-0.7875 -1.75,-1.75 z m 4,-2 c -1.24387,-1.58606 -1.2085,-1.62143 0.37756,-0.37756 0.9625,0.75485 1.75,1.54235 1.75,1.75 0,0.82304 -0.82119,0.29331 -2.12756,-1.37244 z M 344,196.68709 c 0,-0.1721 1.4625,-1.6346 3.25,-3.25 l 3.25,-2.93709 -2.93709,3.25 C 344.82513,196.77946 344,197.45965 344,196.68709 Z M 443.87244,191.25 c -1.24387,-1.58606 -1.2085,-1.62143 0.37756,-0.37756 1.66575,1.30637 2.19548,2.12756 1.37244,2.12756 -0.20765,0 -0.99515,-0.7875 -1.75,-1.75 z m 3.53255,-2.5 -1.90499,-2.25 2.25,1.90499 c 2.11444,1.79022 2.70524,2.59501 1.90499,2.59501 -0.18976,0 -1.20226,-1.0125 -2.25,-2.25 z M 352,189.62244 c 0,-0.20765 0.7875,-0.99515 1.75,-1.75 1.58606,-1.24387 1.62143,-1.2085 0.37756,0.37756 C 352.82119,189.91575 352,190.44548 352,189.62244 Z m 62.73333,-11.74653 c 0.67834,-0.68342 1.48524,-0.99067 1.79313,-0.68278 0.30789,0.30789 -0.24711,0.86705 -1.23333,1.24258 -1.4252,0.54268 -1.54006,0.42782 -0.5598,-0.5598 z m 281.07917,0.44098 c 0.72187,-0.28887 1.58438,-0.25335 1.91667,0.0789 0.33229,0.33229 -0.25834,0.56864 -1.3125,0.52522 -1.16495,-0.048 -1.4019,-0.28494 -0.60417,-0.60416 z m -285,-1 c 0.72187,-0.28887 1.58438,-0.25335 1.91667,0.0789 0.33229,0.33229 -0.25834,0.56864 -1.3125,0.52522 -1.16495,-0.048 -1.4019,-0.28494 -0.60417,-0.60416 z m 272.45125,-0.0345 c 1.52006,-0.22986 3.77006,-0.22371 5,0.0136 1.22994,0.23736 -0.0137,0.42542 -2.76375,0.41792 -2.75,-0.008 -3.75631,-0.20172 -2.23625,-0.43157 z m -291.45125,-4.9655 c 0.72187,-0.28887 1.58438,-0.25335 1.91667,0.0789 0.33229,0.33229 -0.25834,0.56864 -1.3125,0.52522 -1.16495,-0.048 -1.4019,-0.28494 -0.60417,-0.60416 z m 17,0 c 0.72187,-0.28887 1.58438,-0.25335 1.91667,0.0789 0.33229,0.33229 -0.25834,0.56864 -1.3125,0.52522 -1.16495,-0.048 -1.4019,-0.28494 -0.60417,-0.60416 z"
         id="path10" />
      <path
         style="fill:#374458"
         d="M 408.5,858.63417 C 387.8848,851.7564 369.65791,838.74662 344.97397,813.29131 321.24123,788.81693 302.36333,762.84024 289.89454,737.5 c -8.70227,-17.68559 -11.1133,-26.62137 -10.70777,-39.68526 l 0.30065,-9.68527 -19.9318,-13.60406 C 236.95226,659.09791 228.87189,652.80293 218.99826,642.92929 204.73048,628.66151 196.08125,611.78106 198.36869,602.66717 199.03484,600.01299 206.52211,590 207.84063,590 c 0.43677,0 1.60555,2.5875 2.59729,5.75 7.12571,22.72273 19.1629,35.16997 63.56208,65.72735 39.80859,27.39793 51.75465,36.06835 72.99458,52.97929 36.39576,28.97779 62.76788,55.93885 79.27303,81.04336 15.55772,23.66344 20.10104,40.82328 13.9341,52.62815 -2.34817,4.49492 -3.73628,5.83624 -8.6297,8.33883 -6.76828,3.46143 -16.46315,4.37208 -23.07201,2.16719 z m 175,-176.64074 c -37.41121,-2.2465 -69.03314,-9.88584 -96,-23.19202 -4.4,-2.17108 -8.5625,-4.67557 -9.25,-5.56554 C 474.92451,648.93102 478.61027,640 483.71234,640 c 1.41194,0 7.79178,1.97568 14.17742,4.3904 6.38563,2.41473 13.07274,4.70048 14.86024,5.07946 l 3.25,0.68905 V 517.5823 385.0057 l 41.25,0.0125 c 32.74111,0.01 42.6613,-0.29327 48.0918,-1.46983 6.05677,-1.31225 7.54838,-1.3107 13,0.0134 3.38701,0.82266 12.69162,1.77212 20.67691,2.10991 21.2889,0.90054 33.14624,-1.53442 44.47922,-9.134 l 6.57147,-4.40666 3.71323,1.55149 c 5.47255,2.28657 14.64345,1.29892 21.23097,-2.28646 10.85949,-5.91048 23.15371,-23.03791 28.99666,-40.39608 5.533,-16.43741 7.90654,-39.08892 6.09167,-58.13509 -3.31509,-34.79029 -18.77921,-63.26758 -39.66341,-73.04047 -5.95167,-2.78513 -7.27837,-3.03356 -13.92303,-2.60713 -7.16654,0.45992 -7.44957,0.38797 -11.68,-2.96925 -5.38893,-4.27658 -11.9911,-8.24295 -17.28755,-10.38577 l -4.04794,-1.63771 7.37591,-2.24793 c 6.32879,-1.92881 8.88417,-2.17488 18,-1.73328 16.51685,0.80013 32.30077,6.91864 51.1472,19.82681 35.79764,24.51828 68.24453,65.90033 87.76206,111.92982 26.4805,62.45073 31.3821,128.17394 14.14073,189.6064 -9.28072,33.06798 -24.32195,63.67133 -43.93602,89.3936 -18.88819,24.77034 -48.91853,49.6025 -77.8486,64.3732 C 676.9764,675.4117 631.72712,684.8894 583.5,681.99343 Z m 9.42742,-45.62829 c 2.76561,-3.5159 2.61233,-6.57023 -0.51631,-10.28841 L 589.82221,623 h -19.32932 c -10.63112,0 -20.05776,0.27953 -20.94809,0.62118 -1.71244,0.65713 -4.54736,5.38869 -4.54106,7.57916 0.002,0.71481 0.89544,2.76216 1.9853,4.54966 l 1.98156,3.25 h 20.94212 20.94212 z m 93,-1 c 2.36432,-3.00575 2.52356,-4.28123 0.96231,-7.70782 C 685.34722,624.27188 681.97064,623 674.52553,623 c -5.70174,0 -6.60081,0.28025 -8.45295,2.63486 -2.46333,3.13161 -2.66394,7.07585 -0.51588,10.14263 1.39784,1.99569 2.41098,2.22251 9.92742,2.22251 7.85195,0 8.49917,-0.16329 10.4433,-2.63486 z M 732.50837,604.5 c 15.91858,-19.87547 27.40617,-42.45435 35.35991,-69.5 10.39193,-35.33641 12.06502,-78.20294 4.46833,-114.48339 -4.15774,-19.8566 -13.05119,-43.80538 -20.2269,-54.46812 -0.78163,-1.16146 -2.4389,0.057 -8.29327,6.09725 C 739.7924,376.29757 733.8,381.46309 730.5,383.62468 l -6,3.93015 -0.31106,83.97259 c -0.31998,86.38128 0.40818,140.78593 1.87737,140.26747 0.45961,-0.16219 3.35854,-3.44489 6.44206,-7.29489 z m -75.33711,-9.15499 c 2.69298,-2.43711 2.37995,-7.88471 -0.62581,-10.89046 L 654.09091,582 H 602.5 550.90909 l -2.45454,2.45455 c -3.05197,3.05196 -3.16451,7.16083 -0.28024,10.231 L 550.34863,597 h 52.49694 c 47.44564,0 52.67291,-0.15924 54.32569,-1.65499 z m 34.37419,-40.79956 c 2.61915,-2.61914 3.09358,-5.48289 1.42491,-8.60084 -2.39689,-4.47863 -3.65364,-4.5784 -56.80469,-4.50968 l -50.33434,0.0651 -2.41566,2.80576 c -2.9621,3.44044 -3.06963,6.59315 -0.34309,10.05938 L 585.14516,557 h 51.97287 51.97288 z m -1.43184,-38.60625 c 2.96054,-1.58443 4.21939,-5.72104 2.79069,-9.17023 C 690.45369,500.85266 692.34488,501 618.85438,501 h -67.24494 l -2.80472,2.68709 c -3.37138,3.22999 -3.6295,6.99465 -0.73214,10.67805 L 550.14516,517 h 68.99316 c 46.71941,0 69.63307,-0.34247 70.97529,-1.0608 z m -33.03669,-41.86228 c 3.82991,-3.8299 3.78087,-7.17735 -0.15365,-10.48803 L 653.84655,461 h -51.46873 -51.46873 l -2.45454,2.45455 C 546.90731,465.00178 546,467.05163 546,469 c 0,1.94837 0.90731,3.99822 2.45455,5.54545 L 550.90909,477 h 51.62238 51.62238 z m -1.20503,-39.1821 c 5.74,-2.00098 7.13431,-9.17158 2.49325,-12.82224 -2.59015,-2.03741 -3.53195,-2.07258 -55.5,-2.07258 -51.53181,0 -52.91558,0.0504 -54.86514,2 -3.05813,3.05813 -2.72679,9.28314 0.63486,11.92742 2.58695,2.03489 3.55704,2.07258 53.35078,2.07258 34.4494,0 51.73276,-0.35447 53.88625,-1.10518 z M 373.26832,624.15183 C 365.13965,617.19224 343.12885,608.65192 311,599.99133 284.10196,592.74075 262.40553,586.13411 252.28556,582.11257 236.42502,575.8098 234,574.73381 234,573.99918 c 0,-0.70578 17.73804,-9.25701 21.58828,-10.40737 1.20986,-0.36148 4.91119,0.43861 8.79925,1.90208 10.79199,4.06209 26.27803,8.84648 55.11247,17.02692 35.35673,10.03084 48.95318,15.34699 57.23648,22.3792 4.61315,3.91639 5.56649,11.62564 2.2432,18.13983 -1.11118,2.17809 -2.12368,3.94187 -2.25,3.91952 -0.12633,-0.0223 -1.68394,-1.28574 -3.46136,-2.80753 z M 384,389.48393 c -16.86772,-3.44655 -30.88321,-11.43565 -44.07534,-25.12377 -18.94574,-19.65807 -29.02143,-43.57389 -31.48029,-74.72206 l -0.69957,-8.86191 -4.97117,0.65945 c -8.31193,1.10262 -27.68724,7.40903 -38.35381,12.48366 -7.7341,3.67951 -11.76175,6.38198 -17.30525,11.61143 -7.36279,6.94569 -16.0999,19.63751 -18.17146,26.39648 -0.60226,1.96504 -1.30106,4.21176 -1.55289,4.99271 -0.61122,1.8955 -7.88468,-5.11263 -10.43758,-10.05683 -2.6327,-5.09872 -1.62005,-8.36023 6.32239,-20.36309 3.66611,-5.54035 4.4418,-7.21709 4.64846,-10.04815 0.10576,-1.44889 18.2585,-14.41875 25.57651,-18.27404 14.42558,-7.59972 26.55437,-11.97638 45,-16.23821 5.5,-1.27076 10.35034,-2.59987 10.77853,-2.95357 0.42819,-0.3537 1.70542,-3.98275 2.83829,-8.06456 2.69129,-9.69692 10.5446,-26.18891 17.30266,-36.33564 9.90802,-14.87619 25.09908,-28.263 39.74024,-35.02027 39.06379,-18.02895 80.26326,-2.38332 100.75745,38.26295 8.74033,17.33477 13.08668,38.20741 13.07693,62.79983 -0.0152,38.22827 -11.10697,68.92241 -32.54715,90.06703 C 434.03859,386.87753 407.69697,394.3259 384,389.48393 Z M 353.41602,339.25 c -8.82349,-13.37631 -14.74233,-30.6842 -16.38349,-47.90863 -2.67803,-28.10668 7.26575,-56.13402 26.28677,-74.09137 3.05854,-2.8875 5.08293,-5.25 4.49865,-5.25 -1.79416,0 -17.80915,16.16977 -21.78941,22 -5.25388,7.6958 -9.44169,16.30039 -12.18453,25.03524 -2.0386,6.49214 -2.34313,9.48432 -2.33725,22.96476 0.005,11.57431 0.44853,17.14626 1.75105,22 2.38269,8.87891 9.52908,23.10613 15.697,31.25 5.07737,6.70397 7.9349,9.26608 4.46121,4 z m 58.97914,-5.57337 c 24.55119,-11.23991 35.42788,-51.94649 21.46071,-80.31783 -4.09986,-8.328 -12.72304,-17.16501 -20.45356,-20.96073 -5.10869,-2.5084 -7.0472,-2.89807 -14.41712,-2.89807 -7.59378,0 -9.23345,0.35346 -15.15867,3.2677 -11.97788,5.89117 -21.23686,18.39244 -25.35392,34.2323 -2.02716,7.79925 -1.53911,28.71978 0.83984,36 4.51677,13.82249 11.7188,23.35033 22.92096,30.32298 7.13878,4.44345 20.87661,4.60453 30.16176,0.35365 z m 60.14342,-95.9997 c -8.53864,-30.04123 -27.76859,-52.11458 -51.47008,-59.08058 -2.98733,-0.87799 -6.81233,-1.58686 -8.5,-1.57526 -2.42901,0.0167 -1.67485,0.51301 3.61869,2.38145 24.13462,8.51872 48.46673,36.57579 56.02125,64.59746 1.68129,6.23635 2.3777,7.74818 2.61503,5.67693 0.17791,-1.55268 -0.85029,-6.95268 -2.28489,-12 z"
         id="path9" />
    </g>
  </g>
</svg>
